<mxfile host="app.diagrams.net" modified="2024-01-23T07:37:05.519Z" agent="Mozilla/5.0 (X11; Linux x86_64; rv:121.0) Gecko/20100101 Firefox/121.0" etag="xQfZYYWnfanBFO9EdP9I" version="22.1.16" type="github">
  <diagram name="brain" id="ZRLf6JSjRhF3UeJAD4nz">
    <mxGraphModel dx="1144" dy="872" grid="1" gridSize="10" guides="1" tooltips="1" connect="1" arrows="1" fold="1" page="0" pageScale="1" pageWidth="827" pageHeight="1169" math="0" shadow="0">
      <root>
        <mxCell id="rad2TlyHusP4lz5AHPMq-0" />
        <mxCell id="rad2TlyHusP4lz5AHPMq-1" parent="rad2TlyHusP4lz5AHPMq-0" />
        <mxCell id="rad2TlyHusP4lz5AHPMq-2" value="Q" style="whiteSpace=wrap;html=1;aspect=fixed;fontSize=17;fontFamily=Verdana;fontStyle=1;fontColor=#AFB9C7;fillColor=#383E47;rounded=1;" parent="rad2TlyHusP4lz5AHPMq-1" vertex="1">
          <mxGeometry x="98" y="139" width="40" height="40" as="geometry" />
        </mxCell>
        <mxCell id="rad2TlyHusP4lz5AHPMq-3" value="W" style="whiteSpace=wrap;html=1;aspect=fixed;fontSize=17;fontFamily=Verdana;fontStyle=1;fontColor=#AFB9C7;fillColor=#383E47;rounded=1;" parent="rad2TlyHusP4lz5AHPMq-1" vertex="1">
          <mxGeometry x="138" y="112" width="40" height="40" as="geometry" />
        </mxCell>
        <mxCell id="rad2TlyHusP4lz5AHPMq-4" value="E" style="whiteSpace=wrap;html=1;aspect=fixed;fontSize=17;fontFamily=Verdana;fontStyle=1;fontColor=#AFB9C7;fillColor=#383E47;rounded=1;" parent="rad2TlyHusP4lz5AHPMq-1" vertex="1">
          <mxGeometry x="178" y="97" width="40" height="40" as="geometry" />
        </mxCell>
        <mxCell id="rad2TlyHusP4lz5AHPMq-5" value="R" style="whiteSpace=wrap;html=1;aspect=fixed;fontSize=17;fontFamily=Verdana;fontStyle=1;fontColor=#AFB9C7;fillColor=#383E47;rounded=1;" parent="rad2TlyHusP4lz5AHPMq-1" vertex="1">
          <mxGeometry x="218" y="112" width="40" height="40" as="geometry" />
        </mxCell>
        <mxCell id="rad2TlyHusP4lz5AHPMq-6" value="T" style="whiteSpace=wrap;html=1;aspect=fixed;fontSize=17;fontFamily=Verdana;fontStyle=1;fontColor=#AFB9C7;fillColor=#383E47;rounded=1;" parent="rad2TlyHusP4lz5AHPMq-1" vertex="1">
          <mxGeometry x="258" y="120" width="40" height="40" as="geometry" />
        </mxCell>
        <mxCell id="rad2TlyHusP4lz5AHPMq-7" value="A&lt;br&gt;&lt;font style=&quot;font-size: 9px;&quot;&gt;(lgui)&lt;/font&gt;" style="whiteSpace=wrap;html=1;aspect=fixed;fontSize=17;fontFamily=Verdana;fontStyle=1;fontColor=#302316;fillColor=#FFB86C;rounded=1;strokeColor=#D79B00;" parent="rad2TlyHusP4lz5AHPMq-1" vertex="1">
          <mxGeometry x="98" y="179" width="40" height="40" as="geometry" />
        </mxCell>
        <mxCell id="rad2TlyHusP4lz5AHPMq-8" value="&lt;div&gt;S&lt;/div&gt;&lt;font style=&quot;font-size: 9px;&quot;&gt;(&lt;/font&gt;&lt;font size=&quot;1&quot;&gt;lalt)&lt;/font&gt;" style="whiteSpace=wrap;html=1;aspect=fixed;fontSize=17;fontFamily=Verdana;fontStyle=1;fontColor=#302316;fillColor=#FFB86C;rounded=1;strokeColor=#D79B00;" parent="rad2TlyHusP4lz5AHPMq-1" vertex="1">
          <mxGeometry x="138" y="152" width="40" height="40" as="geometry" />
        </mxCell>
        <mxCell id="rad2TlyHusP4lz5AHPMq-9" value="D&lt;br&gt;&lt;font style=&quot;font-size: 9px;&quot;&gt;(lshift)&lt;/font&gt;" style="whiteSpace=wrap;html=1;aspect=fixed;fontSize=17;fontFamily=Verdana;fontStyle=1;fontColor=#302316;fillColor=#FFB86C;rounded=1;strokeColor=#D79B00;" parent="rad2TlyHusP4lz5AHPMq-1" vertex="1">
          <mxGeometry x="178" y="137" width="40" height="40" as="geometry" />
        </mxCell>
        <mxCell id="rad2TlyHusP4lz5AHPMq-10" value="F&lt;br&gt;&lt;div&gt;&lt;font size=&quot;1&quot;&gt;(lctrl)&lt;/font&gt;&lt;/div&gt;" style="whiteSpace=wrap;html=1;aspect=fixed;fontSize=17;fontFamily=Verdana;fontStyle=1;fontColor=#302316;fillColor=#FFB86C;rounded=1;strokeColor=#D79B00;" parent="rad2TlyHusP4lz5AHPMq-1" vertex="1">
          <mxGeometry x="218" y="152" width="40" height="40" as="geometry" />
        </mxCell>
        <mxCell id="rad2TlyHusP4lz5AHPMq-11" value="G" style="whiteSpace=wrap;html=1;aspect=fixed;fontSize=17;fontFamily=Verdana;fontStyle=1;fontColor=#AFB9C7;fillColor=#383E47;rounded=1;" parent="rad2TlyHusP4lz5AHPMq-1" vertex="1">
          <mxGeometry x="258" y="160" width="40" height="40" as="geometry" />
        </mxCell>
        <mxCell id="rad2TlyHusP4lz5AHPMq-12" value="Z" style="whiteSpace=wrap;html=1;aspect=fixed;fontSize=17;fontFamily=Verdana;fontStyle=1;fontColor=#AFB9C7;fillColor=#383E47;rounded=1;" parent="rad2TlyHusP4lz5AHPMq-1" vertex="1">
          <mxGeometry x="98" y="219" width="40" height="40" as="geometry" />
        </mxCell>
        <mxCell id="rad2TlyHusP4lz5AHPMq-13" value="X" style="whiteSpace=wrap;html=1;aspect=fixed;fontSize=17;fontFamily=Verdana;fontStyle=1;fontColor=#AFB9C7;fillColor=#383E47;rounded=1;" parent="rad2TlyHusP4lz5AHPMq-1" vertex="1">
          <mxGeometry x="138" y="192" width="40" height="40" as="geometry" />
        </mxCell>
        <mxCell id="rad2TlyHusP4lz5AHPMq-14" value="C" style="whiteSpace=wrap;html=1;aspect=fixed;fontSize=17;fontFamily=Verdana;fontStyle=1;fontColor=#AFB9C7;fillColor=#383E47;rounded=1;" parent="rad2TlyHusP4lz5AHPMq-1" vertex="1">
          <mxGeometry x="178" y="177" width="40" height="40" as="geometry" />
        </mxCell>
        <mxCell id="rad2TlyHusP4lz5AHPMq-15" value="V" style="whiteSpace=wrap;html=1;aspect=fixed;fontSize=17;fontFamily=Verdana;fontStyle=1;fontColor=#AFB9C7;fillColor=#383E47;rounded=1;" parent="rad2TlyHusP4lz5AHPMq-1" vertex="1">
          <mxGeometry x="218" y="192" width="40" height="40" as="geometry" />
        </mxCell>
        <mxCell id="rad2TlyHusP4lz5AHPMq-16" value="B" style="whiteSpace=wrap;html=1;aspect=fixed;fontSize=17;fontFamily=Verdana;fontStyle=1;fontColor=#AFB9C7;fillColor=#383E47;rounded=1;" parent="rad2TlyHusP4lz5AHPMq-1" vertex="1">
          <mxGeometry x="258" y="200" width="40" height="40" as="geometry" />
        </mxCell>
        <mxCell id="rad2TlyHusP4lz5AHPMq-17" value="Sym" style="whiteSpace=wrap;html=1;aspect=fixed;rotation=15;fontSize=17;fontFamily=Verdana;fontStyle=1;fillColor=#a20025;strokeColor=#6F0000;fontColor=#ffffff;rounded=1;" parent="rad2TlyHusP4lz5AHPMq-1" vertex="1">
          <mxGeometry x="238" y="246" width="40" height="40" as="geometry" />
        </mxCell>
        <mxCell id="rad2TlyHusP4lz5AHPMq-18" value="Spc" style="whiteSpace=wrap;html=1;aspect=fixed;rotation=30;fontSize=17;fontFamily=Verdana;fontStyle=1;fontColor=#AFB9C7;fillColor=#383E47;rounded=1;align=center;verticalAlign=middle;" parent="rad2TlyHusP4lz5AHPMq-1" vertex="1">
          <mxGeometry x="286" y="264" width="40" height="40" as="geometry" />
        </mxCell>
        <mxCell id="rad2TlyHusP4lz5AHPMq-19" value="Y" style="whiteSpace=wrap;html=1;aspect=fixed;fontSize=17;fontFamily=Verdana;fontStyle=1;fontColor=#AFB9C7;fillColor=#383E47;rounded=1;" parent="rad2TlyHusP4lz5AHPMq-1" vertex="1">
          <mxGeometry x="478" y="120" width="40" height="40" as="geometry" />
        </mxCell>
        <mxCell id="rad2TlyHusP4lz5AHPMq-20" value="I" style="whiteSpace=wrap;html=1;aspect=fixed;fontSize=17;fontFamily=Verdana;fontStyle=1;fontColor=#AFB9C7;fillColor=#383E47;rounded=1;" parent="rad2TlyHusP4lz5AHPMq-1" vertex="1">
          <mxGeometry x="558" y="97" width="40" height="40" as="geometry" />
        </mxCell>
        <mxCell id="rad2TlyHusP4lz5AHPMq-21" value="O" style="whiteSpace=wrap;html=1;aspect=fixed;fontSize=17;fontFamily=Verdana;fontStyle=1;fontColor=#AFB9C7;fillColor=#383E47;rounded=1;" parent="rad2TlyHusP4lz5AHPMq-1" vertex="1">
          <mxGeometry x="598" y="112" width="40" height="40" as="geometry" />
        </mxCell>
        <mxCell id="rad2TlyHusP4lz5AHPMq-22" value="P" style="whiteSpace=wrap;html=1;aspect=fixed;fontSize=17;fontFamily=Verdana;fontStyle=1;fontColor=#AFB9C7;fillColor=#383E47;rounded=1;" parent="rad2TlyHusP4lz5AHPMq-1" vertex="1">
          <mxGeometry x="638" y="141" width="40" height="40" as="geometry" />
        </mxCell>
        <mxCell id="rad2TlyHusP4lz5AHPMq-23" value="H" style="whiteSpace=wrap;html=1;aspect=fixed;fontSize=17;fontFamily=Verdana;fontStyle=1;fontColor=#AFB9C7;fillColor=#383E47;rounded=1;" parent="rad2TlyHusP4lz5AHPMq-1" vertex="1">
          <mxGeometry x="478" y="160" width="40" height="40" as="geometry" />
        </mxCell>
        <mxCell id="rad2TlyHusP4lz5AHPMq-24" value="J&lt;br&gt;&lt;font style=&quot;font-size: 9px;&quot;&gt;(rctrl)&lt;/font&gt;" style="whiteSpace=wrap;html=1;aspect=fixed;fontSize=17;fontFamily=Verdana;fontStyle=1;fontColor=#302316;fillColor=#FFB86C;rounded=1;strokeColor=#D79B00;" parent="rad2TlyHusP4lz5AHPMq-1" vertex="1">
          <mxGeometry x="518" y="152" width="40" height="40" as="geometry" />
        </mxCell>
        <mxCell id="rad2TlyHusP4lz5AHPMq-25" value="K&lt;br&gt;&lt;font style=&quot;font-size: 9px;&quot;&gt;(rshift)&lt;/font&gt;" style="whiteSpace=wrap;html=1;aspect=fixed;fontSize=17;fontFamily=Verdana;fontStyle=1;fontColor=#302316;fillColor=#FFB86C;rounded=1;strokeColor=#D79B00;" parent="rad2TlyHusP4lz5AHPMq-1" vertex="1">
          <mxGeometry x="558" y="137" width="40" height="40" as="geometry" />
        </mxCell>
        <mxCell id="rad2TlyHusP4lz5AHPMq-26" value="L&lt;br&gt;&lt;font style=&quot;font-size: 9px;&quot;&gt;(ralt)&lt;/font&gt;" style="whiteSpace=wrap;html=1;aspect=fixed;fontSize=17;fontFamily=Verdana;fontStyle=1;fontColor=#302316;fillColor=#FFB86C;rounded=1;strokeColor=#D79B00;" parent="rad2TlyHusP4lz5AHPMq-1" vertex="1">
          <mxGeometry x="598" y="152" width="38" height="38" as="geometry" />
        </mxCell>
        <mxCell id="rad2TlyHusP4lz5AHPMq-27" value="Ö&lt;br&gt;&lt;font style=&quot;font-size: 9px;&quot;&gt;(rgui)&lt;/font&gt;" style="whiteSpace=wrap;html=1;aspect=fixed;fontSize=17;fontFamily=Verdana;fontStyle=1;fontColor=#302316;fillColor=#FFB86C;rounded=1;strokeColor=#D79B00;" parent="rad2TlyHusP4lz5AHPMq-1" vertex="1">
          <mxGeometry x="638" y="181" width="42" height="42" as="geometry" />
        </mxCell>
        <mxCell id="rad2TlyHusP4lz5AHPMq-28" value="N" style="whiteSpace=wrap;html=1;aspect=fixed;fontSize=17;fontFamily=Verdana;fontStyle=1;fontColor=#AFB9C7;fillColor=#383E47;rounded=1;" parent="rad2TlyHusP4lz5AHPMq-1" vertex="1">
          <mxGeometry x="478" y="200" width="40" height="40" as="geometry" />
        </mxCell>
        <mxCell id="rad2TlyHusP4lz5AHPMq-29" value="M" style="whiteSpace=wrap;html=1;aspect=fixed;fontSize=17;fontFamily=Verdana;fontStyle=1;fontColor=#AFB9C7;fillColor=#383E47;rounded=1;" parent="rad2TlyHusP4lz5AHPMq-1" vertex="1">
          <mxGeometry x="518" y="192" width="40" height="40" as="geometry" />
        </mxCell>
        <mxCell id="rad2TlyHusP4lz5AHPMq-30" value="&lt;div&gt;,&lt;/div&gt;;" style="whiteSpace=wrap;html=1;aspect=fixed;fontSize=17;fontFamily=Verdana;fontStyle=1;fontColor=#AFB9C7;fillColor=#383E47;rounded=1;" parent="rad2TlyHusP4lz5AHPMq-1" vertex="1">
          <mxGeometry x="558" y="177" width="40" height="40" as="geometry" />
        </mxCell>
        <mxCell id="rad2TlyHusP4lz5AHPMq-31" value="&lt;div&gt;.&lt;/div&gt;:" style="whiteSpace=wrap;html=1;aspect=fixed;fontSize=17;fontFamily=Verdana;fontStyle=1;fontColor=#AFB9C7;fillColor=#383E47;rounded=1;" parent="rad2TlyHusP4lz5AHPMq-1" vertex="1">
          <mxGeometry x="598" y="192" width="40" height="40" as="geometry" />
        </mxCell>
        <mxCell id="rad2TlyHusP4lz5AHPMq-32" value="&lt;div&gt;-&lt;/div&gt;_" style="whiteSpace=wrap;html=1;aspect=fixed;fontSize=17;fontFamily=Verdana;fontStyle=1;fontColor=#AFB9C7;fillColor=#383E47;rounded=1;" parent="rad2TlyHusP4lz5AHPMq-1" vertex="1">
          <mxGeometry x="638" y="221" width="40" height="40" as="geometry" />
        </mxCell>
        <mxCell id="rad2TlyHusP4lz5AHPMq-33" value="fnc&lt;br&gt;nav" style="whiteSpace=wrap;html=1;aspect=fixed;rotation=-15;fontSize=17;fontFamily=Verdana;fontStyle=1;fillColor=#1ba1e2;strokeColor=#006EAF;fontColor=#ffffff;rounded=1;" parent="rad2TlyHusP4lz5AHPMq-1" vertex="1">
          <mxGeometry x="498" y="246" width="40" height="40" as="geometry" />
        </mxCell>
        <mxCell id="rad2TlyHusP4lz5AHPMq-34" value="&lt;b&gt;Base&lt;/b&gt;" style="rounded=0;whiteSpace=wrap;html=1;fontFamily=Verdana;fontSize=17;fontColor=#AFB9C7;fillColor=#383E47;" parent="rad2TlyHusP4lz5AHPMq-1" vertex="1">
          <mxGeometry x="284" y="67" width="210" height="30" as="geometry" />
        </mxCell>
        <mxCell id="rad2TlyHusP4lz5AHPMq-35" value="&quot;" style="whiteSpace=wrap;html=1;aspect=fixed;fontSize=17;fontFamily=Verdana;fontStyle=1;fontColor=#AFB9C7;fillColor=#383E47;rounded=1;strokeColor=default;" parent="rad2TlyHusP4lz5AHPMq-1" vertex="1">
          <mxGeometry x="98" y="452" width="40" height="40" as="geometry" />
        </mxCell>
        <mxCell id="rad2TlyHusP4lz5AHPMq-36" value="@" style="whiteSpace=wrap;html=1;aspect=fixed;fontSize=17;fontFamily=Verdana;fontStyle=1;fontColor=#AFB9C7;fillColor=#383E47;rounded=1;" parent="rad2TlyHusP4lz5AHPMq-1" vertex="1">
          <mxGeometry x="138" y="424" width="40" height="40" as="geometry" />
        </mxCell>
        <mxCell id="rad2TlyHusP4lz5AHPMq-37" value="=" style="whiteSpace=wrap;html=1;aspect=fixed;fontSize=17;fontFamily=Verdana;fontStyle=1;fontColor=#AFB9C7;fillColor=#383E47;rounded=1;" parent="rad2TlyHusP4lz5AHPMq-1" vertex="1">
          <mxGeometry x="178" y="409" width="40" height="40" as="geometry" />
        </mxCell>
        <mxCell id="rad2TlyHusP4lz5AHPMq-38" value="&amp;amp;" style="whiteSpace=wrap;html=1;aspect=fixed;fontSize=17;fontFamily=Verdana;fontStyle=1;fontColor=#AFB9C7;fillColor=#383E47;rounded=1;" parent="rad2TlyHusP4lz5AHPMq-1" vertex="1">
          <mxGeometry x="218" y="424" width="40" height="40" as="geometry" />
        </mxCell>
        <mxCell id="rad2TlyHusP4lz5AHPMq-39" value="\" style="whiteSpace=wrap;html=1;aspect=fixed;fontSize=17;fontFamily=Verdana;fontStyle=1;fontColor=#AFB9C7;fillColor=#383E47;rounded=1;" parent="rad2TlyHusP4lz5AHPMq-1" vertex="1">
          <mxGeometry x="258" y="432" width="40" height="40" as="geometry" />
        </mxCell>
        <mxCell id="rad2TlyHusP4lz5AHPMq-40" value="&#39;" style="whiteSpace=wrap;html=1;aspect=fixed;fontSize=17;fontFamily=Verdana;fontStyle=1;fontColor=#302316;fillColor=#FFB86C;rounded=1;strokeColor=#D79B00;" parent="rad2TlyHusP4lz5AHPMq-1" vertex="1">
          <mxGeometry x="98" y="492" width="40" height="40" as="geometry" />
        </mxCell>
        <mxCell id="rad2TlyHusP4lz5AHPMq-41" value="*" style="whiteSpace=wrap;html=1;aspect=fixed;fontSize=17;fontFamily=Verdana;fontStyle=1;fontColor=#302316;fillColor=#FFB86C;rounded=1;strokeColor=#D79B00;" parent="rad2TlyHusP4lz5AHPMq-1" vertex="1">
          <mxGeometry x="138" y="464" width="40" height="40" as="geometry" />
        </mxCell>
        <mxCell id="rad2TlyHusP4lz5AHPMq-42" value="$" style="whiteSpace=wrap;html=1;aspect=fixed;fontSize=17;fontFamily=Verdana;fontStyle=1;fontColor=#302316;fillColor=#FFB86C;rounded=1;strokeColor=#D79B00;" parent="rad2TlyHusP4lz5AHPMq-1" vertex="1">
          <mxGeometry x="178" y="449" width="40" height="40" as="geometry" />
        </mxCell>
        <mxCell id="rad2TlyHusP4lz5AHPMq-43" value="!" style="whiteSpace=wrap;html=1;aspect=fixed;fontSize=17;fontFamily=Verdana;fontStyle=1;fontColor=#302316;fillColor=#FFB86C;rounded=1;strokeColor=#D79B00;" parent="rad2TlyHusP4lz5AHPMq-1" vertex="1">
          <mxGeometry x="218" y="464" width="40" height="40" as="geometry" />
        </mxCell>
        <mxCell id="rad2TlyHusP4lz5AHPMq-44" value="~" style="whiteSpace=wrap;html=1;aspect=fixed;fontSize=17;fontFamily=Verdana;fontStyle=1;fontColor=#AFB9C7;fillColor=#383E47;rounded=1;" parent="rad2TlyHusP4lz5AHPMq-1" vertex="1">
          <mxGeometry x="258" y="472" width="40" height="40" as="geometry" />
        </mxCell>
        <mxCell id="rad2TlyHusP4lz5AHPMq-45" value="%" style="whiteSpace=wrap;html=1;aspect=fixed;fontSize=17;fontFamily=Verdana;fontStyle=1;fontColor=#AFB9C7;fillColor=#383E47;rounded=1;" parent="rad2TlyHusP4lz5AHPMq-1" vertex="1">
          <mxGeometry x="98" y="532" width="40" height="40" as="geometry" />
        </mxCell>
        <mxCell id="rad2TlyHusP4lz5AHPMq-46" value="#" style="whiteSpace=wrap;html=1;aspect=fixed;fontSize=17;fontFamily=Verdana;fontStyle=1;fontColor=#AFB9C7;fillColor=#383E47;rounded=1;" parent="rad2TlyHusP4lz5AHPMq-1" vertex="1">
          <mxGeometry x="138" y="504" width="40" height="40" as="geometry" />
        </mxCell>
        <mxCell id="rad2TlyHusP4lz5AHPMq-47" value="^" style="whiteSpace=wrap;html=1;aspect=fixed;fontSize=17;fontFamily=Verdana;fontStyle=1;fontColor=#AFB9C7;fillColor=#383E47;rounded=1;" parent="rad2TlyHusP4lz5AHPMq-1" vertex="1">
          <mxGeometry x="178" y="489" width="40" height="40" as="geometry" />
        </mxCell>
        <mxCell id="rad2TlyHusP4lz5AHPMq-48" value="$" style="whiteSpace=wrap;html=1;aspect=fixed;fontSize=17;fontFamily=Verdana;fontStyle=1;fontColor=#AFB9C7;fillColor=#383E47;rounded=1;" parent="rad2TlyHusP4lz5AHPMq-1" vertex="1">
          <mxGeometry x="218" y="504" width="40" height="40" as="geometry" />
        </mxCell>
        <mxCell id="rad2TlyHusP4lz5AHPMq-49" value="-" style="whiteSpace=wrap;html=1;aspect=fixed;fontSize=17;fontFamily=Verdana;fontStyle=1;fontColor=#AFB9C7;fillColor=#383E47;rounded=1;" parent="rad2TlyHusP4lz5AHPMq-1" vertex="1">
          <mxGeometry x="258" y="512" width="40" height="40" as="geometry" />
        </mxCell>
        <mxCell id="rad2TlyHusP4lz5AHPMq-50" value="&lt;font color=&quot;#afb9c7&quot;&gt;-&lt;/font&gt;" style="whiteSpace=wrap;html=1;aspect=fixed;rotation=15;fontSize=14;fontFamily=Verdana;fontStyle=1;fontColor=#ffffff;fillColor=#383E47;strokeColor=#F0F0F0;rounded=1;" parent="rad2TlyHusP4lz5AHPMq-1" vertex="1">
          <mxGeometry x="238" y="558" width="40" height="40" as="geometry" />
        </mxCell>
        <mxCell id="rad2TlyHusP4lz5AHPMq-51" value="(" style="whiteSpace=wrap;html=1;aspect=fixed;fontSize=17;fontFamily=Verdana;fontStyle=1;fontColor=#AFB9C7;fillColor=#383E47;rounded=1;" parent="rad2TlyHusP4lz5AHPMq-1" vertex="1">
          <mxGeometry x="478" y="432" width="40" height="40" as="geometry" />
        </mxCell>
        <mxCell id="rad2TlyHusP4lz5AHPMq-52" value=")" style="whiteSpace=wrap;html=1;aspect=fixed;fontSize=17;fontFamily=Verdana;fontStyle=1;fontColor=#AFB9C7;fillColor=#383E47;rounded=1;" parent="rad2TlyHusP4lz5AHPMq-1" vertex="1">
          <mxGeometry x="518" y="424" width="40" height="40" as="geometry" />
        </mxCell>
        <mxCell id="rad2TlyHusP4lz5AHPMq-53" value="|" style="whiteSpace=wrap;html=1;aspect=fixed;fontSize=17;fontFamily=Verdana;fontStyle=1;fontColor=#AFB9C7;fillColor=#383E47;rounded=1;" parent="rad2TlyHusP4lz5AHPMq-1" vertex="1">
          <mxGeometry x="558" y="409" width="40" height="40" as="geometry" />
        </mxCell>
        <mxCell id="rad2TlyHusP4lz5AHPMq-54" value="?" style="whiteSpace=wrap;html=1;aspect=fixed;fontSize=17;fontFamily=Verdana;fontStyle=1;fontColor=#AFB9C7;fillColor=#383E47;rounded=1;" parent="rad2TlyHusP4lz5AHPMq-1" vertex="1">
          <mxGeometry x="598" y="424" width="40" height="40" as="geometry" />
        </mxCell>
        <mxCell id="rad2TlyHusP4lz5AHPMq-55" value="+" style="whiteSpace=wrap;html=1;aspect=fixed;fontSize=17;fontFamily=Verdana;fontStyle=1;fontColor=#AFB9C7;fillColor=#383E47;rounded=1;" parent="rad2TlyHusP4lz5AHPMq-1" vertex="1">
          <mxGeometry x="638" y="451" width="40" height="40" as="geometry" />
        </mxCell>
        <mxCell id="rad2TlyHusP4lz5AHPMq-56" value="[" style="whiteSpace=wrap;html=1;aspect=fixed;fontSize=17;fontFamily=Verdana;fontStyle=1;fontColor=#AFB9C7;fillColor=#383E47;rounded=1;" parent="rad2TlyHusP4lz5AHPMq-1" vertex="1">
          <mxGeometry x="478" y="472" width="40" height="40" as="geometry" />
        </mxCell>
        <mxCell id="rad2TlyHusP4lz5AHPMq-57" value="]" style="whiteSpace=wrap;html=1;aspect=fixed;fontSize=17;fontFamily=Verdana;fontStyle=1;fontColor=#302316;fillColor=#FFB86C;rounded=1;strokeColor=#D79B00;" parent="rad2TlyHusP4lz5AHPMq-1" vertex="1">
          <mxGeometry x="518" y="464" width="40" height="40" as="geometry" />
        </mxCell>
        <mxCell id="rad2TlyHusP4lz5AHPMq-58" value="=" style="whiteSpace=wrap;html=1;aspect=fixed;fontSize=17;fontFamily=Verdana;fontStyle=1;fontColor=#302316;fillColor=#FFB86C;rounded=1;strokeColor=#D79B00;" parent="rad2TlyHusP4lz5AHPMq-1" vertex="1">
          <mxGeometry x="558" y="449" width="40" height="40" as="geometry" />
        </mxCell>
        <mxCell id="rad2TlyHusP4lz5AHPMq-59" value="|" style="whiteSpace=wrap;html=1;aspect=fixed;fontSize=17;fontFamily=Verdana;fontStyle=1;fontColor=#302316;fillColor=#FFB86C;rounded=1;strokeColor=#D79B00;" parent="rad2TlyHusP4lz5AHPMq-1" vertex="1">
          <mxGeometry x="598" y="464" width="40" height="40" as="geometry" />
        </mxCell>
        <mxCell id="rad2TlyHusP4lz5AHPMq-60" value="-" style="whiteSpace=wrap;html=1;aspect=fixed;fontSize=17;fontFamily=Verdana;fontStyle=1;fontColor=#302316;fillColor=#FFB86C;rounded=1;strokeColor=#D79B00;" parent="rad2TlyHusP4lz5AHPMq-1" vertex="1">
          <mxGeometry x="638" y="491" width="40" height="40" as="geometry" />
        </mxCell>
        <mxCell id="rad2TlyHusP4lz5AHPMq-61" value="{" style="whiteSpace=wrap;html=1;aspect=fixed;fontSize=17;fontFamily=Verdana;fontStyle=1;fontColor=#AFB9C7;fillColor=#383E47;rounded=1;" parent="rad2TlyHusP4lz5AHPMq-1" vertex="1">
          <mxGeometry x="478" y="512" width="40" height="40" as="geometry" />
        </mxCell>
        <mxCell id="rad2TlyHusP4lz5AHPMq-62" value="}" style="whiteSpace=wrap;html=1;aspect=fixed;fontSize=17;fontFamily=Verdana;fontStyle=1;fontColor=#AFB9C7;fillColor=#383E47;rounded=1;" parent="rad2TlyHusP4lz5AHPMq-1" vertex="1">
          <mxGeometry x="518" y="504" width="40" height="40" as="geometry" />
        </mxCell>
        <mxCell id="rad2TlyHusP4lz5AHPMq-63" value="&amp;lt;" style="whiteSpace=wrap;html=1;aspect=fixed;fontSize=17;fontFamily=Verdana;fontStyle=1;fontColor=#AFB9C7;fillColor=#383E47;rounded=1;" parent="rad2TlyHusP4lz5AHPMq-1" vertex="1">
          <mxGeometry x="558" y="489" width="40" height="40" as="geometry" />
        </mxCell>
        <mxCell id="rad2TlyHusP4lz5AHPMq-64" value="&amp;gt;" style="whiteSpace=wrap;html=1;aspect=fixed;fontSize=17;fontFamily=Verdana;fontStyle=1;fontColor=#AFB9C7;fillColor=#383E47;rounded=1;" parent="rad2TlyHusP4lz5AHPMq-1" vertex="1">
          <mxGeometry x="598" y="504" width="40" height="40" as="geometry" />
        </mxCell>
        <mxCell id="rad2TlyHusP4lz5AHPMq-65" value="_" style="whiteSpace=wrap;html=1;aspect=fixed;fontSize=17;fontFamily=Verdana;fontStyle=1;fontColor=#AFB9C7;fillColor=#383E47;rounded=1;" parent="rad2TlyHusP4lz5AHPMq-1" vertex="1">
          <mxGeometry x="638" y="531" width="40" height="40" as="geometry" />
        </mxCell>
        <mxCell id="rad2TlyHusP4lz5AHPMq-66" value="&lt;font color=&quot;#ffffff&quot; style=&quot;font-size: 14px;&quot;&gt;&lt;br style=&quot;font-size: 14px;&quot;&gt;&lt;/font&gt;" style="whiteSpace=wrap;html=1;aspect=fixed;rotation=-15;fontSize=14;fontFamily=Verdana;fontStyle=1;fontColor=#333333;fillColor=#383E47;strokeColor=#F0F0F0;shadow=0;sketch=0;rounded=1;glass=0;labelBackgroundColor=none;" parent="rad2TlyHusP4lz5AHPMq-1" vertex="1">
          <mxGeometry x="498" y="558" width="40" height="40" as="geometry" />
        </mxCell>
        <mxCell id="rad2TlyHusP4lz5AHPMq-67" value="&lt;b&gt;fnc/nav&lt;/b&gt;" style="rounded=0;whiteSpace=wrap;html=1;fontFamily=Verdana;fontSize=17;fillColor=#1ba1e2;strokeColor=#006EAF;fontStyle=0;fontColor=#ffffff;" parent="rad2TlyHusP4lz5AHPMq-1" vertex="1">
          <mxGeometry x="284" y="707" width="210" height="30" as="geometry" />
        </mxCell>
        <mxCell id="rad2TlyHusP4lz5AHPMq-68" value="F1" style="whiteSpace=wrap;html=1;aspect=fixed;fontSize=11;fontFamily=Verdana;fontStyle=1;fontColor=#AFB9C7;fillColor=#383E47;rounded=1;" parent="rad2TlyHusP4lz5AHPMq-1" vertex="1">
          <mxGeometry x="98" y="779" width="40" height="40" as="geometry" />
        </mxCell>
        <mxCell id="rad2TlyHusP4lz5AHPMq-69" value="F5" style="whiteSpace=wrap;html=1;aspect=fixed;fontSize=14;fontFamily=Verdana;fontStyle=1;fontColor=#AFB9C7;fillColor=#383E47;rounded=1;" parent="rad2TlyHusP4lz5AHPMq-1" vertex="1">
          <mxGeometry x="258" y="760" width="40" height="40" as="geometry" />
        </mxCell>
        <mxCell id="rad2TlyHusP4lz5AHPMq-70" value="F2" style="whiteSpace=wrap;html=1;aspect=fixed;fontSize=14;fontFamily=Verdana;fontStyle=1;fontColor=#AFB9C7;fillColor=#383E47;rounded=1;" parent="rad2TlyHusP4lz5AHPMq-1" vertex="1">
          <mxGeometry x="138" y="750" width="40" height="40" as="geometry" />
        </mxCell>
        <mxCell id="rad2TlyHusP4lz5AHPMq-71" value="F3" style="whiteSpace=wrap;html=1;aspect=fixed;fontSize=14;fontFamily=Verdana;fontStyle=1;fontColor=#AFB9C7;fillColor=#383E47;rounded=1;" parent="rad2TlyHusP4lz5AHPMq-1" vertex="1">
          <mxGeometry x="177.5" y="737" width="40" height="40" as="geometry" />
        </mxCell>
        <mxCell id="rad2TlyHusP4lz5AHPMq-72" value="F4" style="whiteSpace=wrap;html=1;aspect=fixed;fontSize=14;fontFamily=Verdana;fontStyle=1;fontColor=#AFB9C7;fillColor=#383E47;rounded=1;" parent="rad2TlyHusP4lz5AHPMq-1" vertex="1">
          <mxGeometry x="217.5" y="750" width="40" height="40" as="geometry" />
        </mxCell>
        <mxCell id="rad2TlyHusP4lz5AHPMq-73" value="F7" style="whiteSpace=wrap;html=1;aspect=fixed;fontSize=14;fontFamily=Verdana;fontStyle=1;fontColor=#302316;fillColor=#FFB86C;rounded=1;strokeColor=#D79B00;" parent="rad2TlyHusP4lz5AHPMq-1" vertex="1">
          <mxGeometry x="138" y="792" width="40" height="40" as="geometry" />
        </mxCell>
        <mxCell id="rad2TlyHusP4lz5AHPMq-74" value="F8" style="whiteSpace=wrap;html=1;aspect=fixed;fontSize=14;fontFamily=Verdana;fontStyle=1;fontColor=#302316;fillColor=#FFB86C;rounded=1;strokeColor=#D79B00;" parent="rad2TlyHusP4lz5AHPMq-1" vertex="1">
          <mxGeometry x="178" y="777" width="40" height="40" as="geometry" />
        </mxCell>
        <mxCell id="rad2TlyHusP4lz5AHPMq-75" value="F9" style="whiteSpace=wrap;html=1;aspect=fixed;fontSize=14;fontFamily=Verdana;fontStyle=1;fontColor=#302316;fillColor=#FFB86C;rounded=1;strokeColor=#D79B00;" parent="rad2TlyHusP4lz5AHPMq-1" vertex="1">
          <mxGeometry x="218" y="792" width="40" height="40" as="geometry" />
        </mxCell>
        <mxCell id="rad2TlyHusP4lz5AHPMq-76" value="F10" style="whiteSpace=wrap;html=1;aspect=fixed;fontSize=14;fontFamily=Verdana;fontStyle=1;fontColor=#AFB9C7;fillColor=#383E47;rounded=1;" parent="rad2TlyHusP4lz5AHPMq-1" vertex="1">
          <mxGeometry x="258" y="800" width="40" height="40" as="geometry" />
        </mxCell>
        <mxCell id="rad2TlyHusP4lz5AHPMq-77" value="F11" style="whiteSpace=wrap;html=1;aspect=fixed;fontSize=11;fontFamily=Verdana;fontStyle=1;fontColor=#AFB9C7;fillColor=#383E47;rounded=1;" parent="rad2TlyHusP4lz5AHPMq-1" vertex="1">
          <mxGeometry x="98" y="859" width="40" height="40" as="geometry" />
        </mxCell>
        <mxCell id="rad2TlyHusP4lz5AHPMq-78" value="F12" style="whiteSpace=wrap;html=1;aspect=fixed;fontSize=14;fontFamily=Verdana;fontStyle=1;fontColor=#AFB9C7;fillColor=#383E47;rounded=1;" parent="rad2TlyHusP4lz5AHPMq-1" vertex="1">
          <mxGeometry x="138" y="832" width="40" height="40" as="geometry" />
        </mxCell>
        <mxCell id="rad2TlyHusP4lz5AHPMq-79" value="" style="whiteSpace=wrap;html=1;aspect=fixed;fontSize=14;fontFamily=Verdana;fontStyle=1;fontColor=#AFB9C7;fillColor=#383E47;rounded=1;" parent="rad2TlyHusP4lz5AHPMq-1" vertex="1">
          <mxGeometry x="178" y="817" width="40" height="40" as="geometry" />
        </mxCell>
        <mxCell id="rad2TlyHusP4lz5AHPMq-80" value="" style="whiteSpace=wrap;html=1;aspect=fixed;fontSize=14;fontFamily=Verdana;fontStyle=1;fontColor=#AFB9C7;fillColor=#383E47;rounded=1;" parent="rad2TlyHusP4lz5AHPMq-1" vertex="1">
          <mxGeometry x="218" y="832" width="40" height="40" as="geometry" />
        </mxCell>
        <mxCell id="rad2TlyHusP4lz5AHPMq-81" value="" style="whiteSpace=wrap;html=1;aspect=fixed;fontSize=14;fontFamily=Verdana;fontStyle=1;fontColor=#AFB9C7;fillColor=#383E47;rounded=1;" parent="rad2TlyHusP4lz5AHPMq-1" vertex="1">
          <mxGeometry x="258" y="840" width="40" height="40" as="geometry" />
        </mxCell>
        <mxCell id="rad2TlyHusP4lz5AHPMq-82" value="&lt;span style=&quot;color: rgb(255, 255, 255);&quot;&gt;Ext&lt;/span&gt;" style="whiteSpace=wrap;html=1;aspect=fixed;rotation=15;fontSize=17;fontFamily=Verdana;fontStyle=1;fontColor=#333333;fillColor=#60A917;strokeColor=#2D7600;rounded=1;shadow=0;glass=0;sketch=0;" parent="rad2TlyHusP4lz5AHPMq-1" vertex="1">
          <mxGeometry x="238" y="886" width="40" height="40" as="geometry" />
        </mxCell>
        <mxCell id="rad2TlyHusP4lz5AHPMq-83" value="&lt;div&gt;&lt;font&gt;Spc&lt;/font&gt;&lt;/div&gt;&lt;div&gt;&lt;span style=&quot;font-family: &amp;quot;segoe ui emoji&amp;quot;, &amp;quot;apple color emoji&amp;quot;, &amp;quot;noto color emoji&amp;quot;; font-size: 14px;&quot;&gt;&lt;/span&gt;&lt;/div&gt;&lt;div&gt;&lt;span style=&quot;font-family: &amp;quot;segoe ui emoji&amp;quot;, &amp;quot;apple color emoji&amp;quot;, &amp;quot;noto color emoji&amp;quot;; font-size: 14px;&quot;&gt;&lt;/span&gt;&lt;/div&gt;" style="whiteSpace=wrap;html=1;aspect=fixed;rotation=30;fontSize=14;fontFamily=Verdana;fontStyle=1;fontColor=#AFB9C7;fillColor=#383E47;rounded=1;strokeColor=#F0F0F0;" parent="rad2TlyHusP4lz5AHPMq-1" vertex="1">
          <mxGeometry x="286" y="904" width="40" height="40" as="geometry" />
        </mxCell>
        <mxCell id="rad2TlyHusP4lz5AHPMq-84" value="home" style="whiteSpace=wrap;html=1;aspect=fixed;fontSize=11;fontFamily=Verdana;fontStyle=1;fontColor=#AFB9C7;fillColor=#383E47;rounded=1;" parent="rad2TlyHusP4lz5AHPMq-1" vertex="1">
          <mxGeometry x="478" y="760" width="40" height="40" as="geometry" />
        </mxCell>
        <mxCell id="rad2TlyHusP4lz5AHPMq-85" value="Pag&lt;br&gt;up" style="whiteSpace=wrap;html=1;aspect=fixed;fontSize=11;fontFamily=Verdana;fontStyle=1;fontColor=#AFB9C7;fillColor=#383E47;rounded=1;" parent="rad2TlyHusP4lz5AHPMq-1" vertex="1">
          <mxGeometry x="518" y="752" width="40" height="40" as="geometry" />
        </mxCell>
        <mxCell id="rad2TlyHusP4lz5AHPMq-86" value="&lt;span style=&quot;font-family: &amp;quot;segoe ui emoji&amp;quot;, &amp;quot;apple color emoji&amp;quot;, &amp;quot;noto color emoji&amp;quot;; font-size: 16px;&quot;&gt;↑&lt;/span&gt;" style="whiteSpace=wrap;html=1;aspect=fixed;fontSize=16;fontFamily=Verdana;fontStyle=1;fontColor=#AFB9C7;fillColor=#383E47;rounded=1;" parent="rad2TlyHusP4lz5AHPMq-1" vertex="1">
          <mxGeometry x="558" y="737" width="40" height="40" as="geometry" />
        </mxCell>
        <mxCell id="rad2TlyHusP4lz5AHPMq-87" value="Pag&lt;br&gt;down" style="whiteSpace=wrap;html=1;aspect=fixed;fontSize=11;fontFamily=Verdana;fontStyle=1;fontColor=#AFB9C7;fillColor=#383E47;rounded=1;" parent="rad2TlyHusP4lz5AHPMq-1" vertex="1">
          <mxGeometry x="598" y="752" width="40" height="40" as="geometry" />
        </mxCell>
        <mxCell id="rad2TlyHusP4lz5AHPMq-88" value="" style="whiteSpace=wrap;html=1;aspect=fixed;fontSize=11;fontFamily=Verdana;fontStyle=1;fontColor=#AFB9C7;fillColor=#383E47;rounded=1;" parent="rad2TlyHusP4lz5AHPMq-1" vertex="1">
          <mxGeometry x="638" y="779" width="40" height="40" as="geometry" />
        </mxCell>
        <mxCell id="rad2TlyHusP4lz5AHPMq-89" value="end" style="whiteSpace=wrap;html=1;aspect=fixed;fontSize=11;fontFamily=Verdana;fontStyle=1;fontColor=#AFB9C7;fillColor=#383E47;rounded=1;" parent="rad2TlyHusP4lz5AHPMq-1" vertex="1">
          <mxGeometry x="478" y="800" width="40" height="40" as="geometry" />
        </mxCell>
        <mxCell id="rad2TlyHusP4lz5AHPMq-90" value="&lt;span style=&quot;font-family: &amp;quot;segoe ui emoji&amp;quot;, &amp;quot;apple color emoji&amp;quot;, &amp;quot;noto color emoji&amp;quot;; font-size: 16px;&quot;&gt;←&lt;/span&gt;" style="whiteSpace=wrap;html=1;aspect=fixed;fontSize=16;fontFamily=Verdana;fontStyle=1;fontColor=#AFB9C7;fillColor=#383E47;rounded=1;" parent="rad2TlyHusP4lz5AHPMq-1" vertex="1">
          <mxGeometry x="518" y="792" width="40" height="40" as="geometry" />
        </mxCell>
        <mxCell id="rad2TlyHusP4lz5AHPMq-91" value="&lt;span style=&quot;font-family: &amp;quot;segoe ui emoji&amp;quot;, &amp;quot;apple color emoji&amp;quot;, &amp;quot;noto color emoji&amp;quot;; font-size: 16px;&quot;&gt;↓&lt;/span&gt;" style="whiteSpace=wrap;html=1;aspect=fixed;fontSize=16;fontFamily=Verdana;fontStyle=1;fontColor=#AFB9C7;fillColor=#383E47;rounded=1;" parent="rad2TlyHusP4lz5AHPMq-1" vertex="1">
          <mxGeometry x="558" y="777" width="40" height="40" as="geometry" />
        </mxCell>
        <mxCell id="rad2TlyHusP4lz5AHPMq-92" value="&lt;span style=&quot;font-family: &amp;quot;segoe ui emoji&amp;quot;, &amp;quot;apple color emoji&amp;quot;, &amp;quot;noto color emoji&amp;quot;; font-size: 16px;&quot;&gt;→&lt;/span&gt;" style="whiteSpace=wrap;html=1;aspect=fixed;fontSize=16;fontFamily=Verdana;fontStyle=1;fontColor=#AFB9C7;fillColor=#383E47;rounded=1;" parent="rad2TlyHusP4lz5AHPMq-1" vertex="1">
          <mxGeometry x="598" y="792" width="40" height="40" as="geometry" />
        </mxCell>
        <mxCell id="rad2TlyHusP4lz5AHPMq-93" value="" style="whiteSpace=wrap;html=1;aspect=fixed;fontSize=11;fontFamily=Verdana;fontStyle=1;fontColor=#AFB9C7;fillColor=#383E47;rounded=1;" parent="rad2TlyHusP4lz5AHPMq-1" vertex="1">
          <mxGeometry x="638" y="819" width="40" height="40" as="geometry" />
        </mxCell>
        <mxCell id="rad2TlyHusP4lz5AHPMq-94" value="" style="whiteSpace=wrap;html=1;aspect=fixed;fontSize=17;fontFamily=Verdana;fontStyle=1;fontColor=#AFB9C7;fillColor=#383E47;rounded=1;" parent="rad2TlyHusP4lz5AHPMq-1" vertex="1">
          <mxGeometry x="477.5" y="840" width="40" height="40" as="geometry" />
        </mxCell>
        <mxCell id="rad2TlyHusP4lz5AHPMq-95" value="Prev&lt;br&gt;track" style="whiteSpace=wrap;html=1;aspect=fixed;fontSize=11;fontFamily=Verdana;fontStyle=1;fontColor=#AFB9C7;fillColor=#383E47;rounded=1;" parent="rad2TlyHusP4lz5AHPMq-1" vertex="1">
          <mxGeometry x="518" y="832" width="40" height="40" as="geometry" />
        </mxCell>
        <mxCell id="rad2TlyHusP4lz5AHPMq-96" value="play/&lt;br style=&quot;font-size: 11px;&quot;&gt;&lt;span style=&quot;font-size: 11px;&quot;&gt;pause&lt;/span&gt;" style="whiteSpace=wrap;html=1;aspect=fixed;fontSize=11;fontFamily=Verdana;fontStyle=1;fontColor=#AFB9C7;fillColor=#383E47;rounded=1;" parent="rad2TlyHusP4lz5AHPMq-1" vertex="1">
          <mxGeometry x="558" y="817" width="40" height="40" as="geometry" />
        </mxCell>
        <mxCell id="rad2TlyHusP4lz5AHPMq-97" value="&lt;font style=&quot;font-size: 11px;&quot;&gt;next&lt;br&gt;track&lt;/font&gt;" style="whiteSpace=wrap;html=1;aspect=fixed;fontSize=17;fontFamily=Verdana;fontStyle=1;fontColor=#AFB9C7;fillColor=#383E47;rounded=1;" parent="rad2TlyHusP4lz5AHPMq-1" vertex="1">
          <mxGeometry x="598" y="832" width="40" height="40" as="geometry" />
        </mxCell>
        <mxCell id="rad2TlyHusP4lz5AHPMq-98" value="mute" style="whiteSpace=wrap;html=1;aspect=fixed;fontSize=11;fontFamily=Verdana;fontStyle=1;fontColor=#AFB9C7;fillColor=#383E47;rounded=1;" parent="rad2TlyHusP4lz5AHPMq-1" vertex="1">
          <mxGeometry x="638" y="859" width="40" height="40" as="geometry" />
        </mxCell>
        <mxCell id="rad2TlyHusP4lz5AHPMq-99" value="" style="whiteSpace=wrap;html=1;aspect=fixed;rotation=-30;fontSize=17;fontFamily=Verdana;fontStyle=1;fontColor=#AFB9C7;fillColor=#383E47;rounded=1;strokeColor=default;" parent="rad2TlyHusP4lz5AHPMq-1" vertex="1">
          <mxGeometry x="450" y="904" width="40" height="40" as="geometry" />
        </mxCell>
        <mxCell id="rad2TlyHusP4lz5AHPMq-100" value="fnc&lt;br style=&quot;font-size: 14px;&quot;&gt;nav" style="whiteSpace=wrap;html=1;aspect=fixed;rotation=-15;fontSize=14;fontFamily=Verdana;fontStyle=1;fontColor=#AFB9C7;fillColor=#383E47;strokeColor=#F0F0F0;rounded=1;dashed=1;" parent="rad2TlyHusP4lz5AHPMq-1" vertex="1">
          <mxGeometry x="498" y="886" width="40" height="40" as="geometry" />
        </mxCell>
        <mxCell id="rad2TlyHusP4lz5AHPMq-101" value="sym" style="rounded=0;whiteSpace=wrap;html=1;fontFamily=Verdana;fontSize=17;fontStyle=1;fillColor=#a20025;strokeColor=#6F0000;fontColor=#ffffff;" parent="rad2TlyHusP4lz5AHPMq-1" vertex="1">
          <mxGeometry x="284" y="379" width="210" height="30" as="geometry" />
        </mxCell>
        <mxCell id="rad2TlyHusP4lz5AHPMq-102" style="edgeStyle=orthogonalEdgeStyle;rounded=1;orthogonalLoop=1;jettySize=auto;html=1;exitX=0.5;exitY=1;exitDx=0;exitDy=0;fontFamily=Verdana;fontSize=14;fontColor=#3399FF;strokeColor=#FF8000;" parent="rad2TlyHusP4lz5AHPMq-1" edge="1">
          <mxGeometry relative="1" as="geometry">
            <mxPoint x="158.49999999999977" y="977" as="sourcePoint" />
            <mxPoint x="158.49999999999977" y="977" as="targetPoint" />
          </mxGeometry>
        </mxCell>
        <mxCell id="rad2TlyHusP4lz5AHPMq-103" style="edgeStyle=orthogonalEdgeStyle;rounded=1;orthogonalLoop=1;jettySize=auto;html=1;fontSize=11;strokeColor=#6C8EBF;entryX=0.5;entryY=0;entryDx=0;entryDy=0;" parent="rad2TlyHusP4lz5AHPMq-1" source="rad2TlyHusP4lz5AHPMq-138" target="rad2TlyHusP4lz5AHPMq-169" edge="1">
          <mxGeometry relative="1" as="geometry" />
        </mxCell>
        <mxCell id="rad2TlyHusP4lz5AHPMq-104" value="&lt;font style=&quot;font-size: 11px;&quot;&gt;Bootloader&lt;br&gt;(flash new firmware)&lt;/font&gt;" style="text;html=1;strokeColor=none;fillColor=none;align=center;verticalAlign=middle;whiteSpace=wrap;rounded=0;shadow=0;glass=0;sketch=0;fontFamily=Verdana;fontSize=14;fontColor=#3399FF;" parent="rad2TlyHusP4lz5AHPMq-1" vertex="1">
          <mxGeometry x="329" y="1497" width="120" height="40" as="geometry" />
        </mxCell>
        <mxCell id="rad2TlyHusP4lz5AHPMq-105" value="U" style="whiteSpace=wrap;html=1;aspect=fixed;fontSize=17;fontFamily=Verdana;fontStyle=1;fontColor=#AFB9C7;fillColor=#383E47;rounded=1;" parent="rad2TlyHusP4lz5AHPMq-1" vertex="1">
          <mxGeometry x="518" y="112" width="40" height="40" as="geometry" />
        </mxCell>
        <mxCell id="rad2TlyHusP4lz5AHPMq-106" value="1" style="whiteSpace=wrap;html=1;aspect=fixed;fontSize=17;fontFamily=Verdana;fontStyle=1;fontColor=#AFB9C7;fillColor=#383E47;rounded=1;" parent="rad2TlyHusP4lz5AHPMq-1" vertex="1">
          <mxGeometry x="97.5" y="1104" width="40" height="40" as="geometry" />
        </mxCell>
        <mxCell id="rad2TlyHusP4lz5AHPMq-107" value="2" style="whiteSpace=wrap;html=1;aspect=fixed;fontSize=17;fontFamily=Verdana;fontStyle=1;fontColor=#AFB9C7;fillColor=#383E47;rounded=1;" parent="rad2TlyHusP4lz5AHPMq-1" vertex="1">
          <mxGeometry x="137.5" y="1077" width="40" height="40" as="geometry" />
        </mxCell>
        <mxCell id="rad2TlyHusP4lz5AHPMq-108" value="3" style="whiteSpace=wrap;html=1;aspect=fixed;fontSize=17;fontFamily=Verdana;fontStyle=1;fontColor=#AFB9C7;fillColor=#383E47;rounded=1;" parent="rad2TlyHusP4lz5AHPMq-1" vertex="1">
          <mxGeometry x="178" y="1062" width="40" height="40" as="geometry" />
        </mxCell>
        <mxCell id="rad2TlyHusP4lz5AHPMq-109" value="4" style="whiteSpace=wrap;html=1;aspect=fixed;fontSize=17;fontFamily=Verdana;fontStyle=1;fontColor=#AFB9C7;fillColor=#383E47;rounded=1;" parent="rad2TlyHusP4lz5AHPMq-1" vertex="1">
          <mxGeometry x="218" y="1077" width="40" height="40" as="geometry" />
        </mxCell>
        <mxCell id="rad2TlyHusP4lz5AHPMq-110" value="5" style="whiteSpace=wrap;html=1;aspect=fixed;fontSize=17;fontFamily=Verdana;fontStyle=1;fontColor=#AFB9C7;fillColor=#383E47;rounded=1;" parent="rad2TlyHusP4lz5AHPMq-1" vertex="1">
          <mxGeometry x="258" y="1085" width="40" height="40" as="geometry" />
        </mxCell>
        <mxCell id="rad2TlyHusP4lz5AHPMq-111" value="9" style="whiteSpace=wrap;html=1;aspect=fixed;fontSize=17;fontFamily=Verdana;fontStyle=1;fontColor=#000000;fillColor=#FFB366;rounded=1;strokeColor=#D79B00;" parent="rad2TlyHusP4lz5AHPMq-1" vertex="1">
          <mxGeometry x="218" y="1117" width="40" height="40" as="geometry" />
        </mxCell>
        <mxCell id="rad2TlyHusP4lz5AHPMq-112" value="&lt;font color=&quot;#AFB9C7&quot;&gt;0&lt;/font&gt;" style="whiteSpace=wrap;html=1;aspect=fixed;fontSize=17;fontFamily=Verdana;fontStyle=1;fontColor=#AFB9C7;fillColor=#383E47;rounded=1;" parent="rad2TlyHusP4lz5AHPMq-1" vertex="1">
          <mxGeometry x="258" y="1125" width="40" height="40" as="geometry" />
        </mxCell>
        <mxCell id="rad2TlyHusP4lz5AHPMq-113" value="" style="whiteSpace=wrap;html=1;aspect=fixed;fontSize=17;fontFamily=Verdana;fontStyle=1;fontColor=#AFB9C7;fillColor=#383E47;rounded=1;" parent="rad2TlyHusP4lz5AHPMq-1" vertex="1">
          <mxGeometry x="138" y="1157" width="40" height="40" as="geometry" />
        </mxCell>
        <mxCell id="rad2TlyHusP4lz5AHPMq-114" value="" style="whiteSpace=wrap;html=1;aspect=fixed;fontSize=14;fontFamily=Verdana;fontStyle=1;fontColor=#AFB9C7;fillColor=#383E47;rounded=1;" parent="rad2TlyHusP4lz5AHPMq-1" vertex="1">
          <mxGeometry x="178" y="1142" width="40" height="40" as="geometry" />
        </mxCell>
        <mxCell id="rad2TlyHusP4lz5AHPMq-115" value="" style="whiteSpace=wrap;html=1;aspect=fixed;fontSize=17;fontFamily=Verdana;fontStyle=1;fontColor=#AFB9C7;fillColor=#383E47;rounded=1;" parent="rad2TlyHusP4lz5AHPMq-1" vertex="1">
          <mxGeometry x="218" y="1157" width="40" height="40" as="geometry" />
        </mxCell>
        <mxCell id="rad2TlyHusP4lz5AHPMq-116" value="=" style="whiteSpace=wrap;html=1;aspect=fixed;fontSize=17;fontFamily=Verdana;fontStyle=1;fontColor=#AFB9C7;fillColor=#383E47;rounded=1;" parent="rad2TlyHusP4lz5AHPMq-1" vertex="1">
          <mxGeometry x="258" y="1165" width="40" height="40" as="geometry" />
        </mxCell>
        <mxCell id="rad2TlyHusP4lz5AHPMq-117" value="num" style="whiteSpace=wrap;html=1;aspect=fixed;rotation=15;fontSize=14;fontFamily=Verdana;fontStyle=1;fontColor=#FFFFFF;fillColor=none;rounded=1;strokeColor=#F0F0F0;dashed=1;" parent="rad2TlyHusP4lz5AHPMq-1" vertex="1">
          <mxGeometry x="238" y="1211" width="40" height="40" as="geometry" />
        </mxCell>
        <mxCell id="rad2TlyHusP4lz5AHPMq-118" value="Spc" style="whiteSpace=wrap;html=1;aspect=fixed;rotation=30;fontSize=14;fontFamily=Verdana;fontStyle=1;fontColor=#AFB9C7;fillColor=#383E47;rounded=1;strokeColor=#F0F0F0;" parent="rad2TlyHusP4lz5AHPMq-1" vertex="1">
          <mxGeometry x="286" y="1229" width="40" height="40" as="geometry" />
        </mxCell>
        <mxCell id="rad2TlyHusP4lz5AHPMq-119" value="6" style="whiteSpace=wrap;html=1;aspect=fixed;fontSize=17;fontFamily=Verdana;fontStyle=1;fontColor=#AFB9C7;fillColor=#383E47;rounded=1;" parent="rad2TlyHusP4lz5AHPMq-1" vertex="1">
          <mxGeometry x="478" y="1085" width="40" height="40" as="geometry" />
        </mxCell>
        <mxCell id="rad2TlyHusP4lz5AHPMq-120" value="7" style="whiteSpace=wrap;html=1;aspect=fixed;fontSize=17;fontFamily=Verdana;fontStyle=1;fontColor=#AFB9C7;fillColor=#383E47;rounded=1;" parent="rad2TlyHusP4lz5AHPMq-1" vertex="1">
          <mxGeometry x="518" y="1077" width="40" height="40" as="geometry" />
        </mxCell>
        <mxCell id="rad2TlyHusP4lz5AHPMq-121" value="8" style="whiteSpace=wrap;html=1;aspect=fixed;fontSize=17;fontFamily=Verdana;fontStyle=1;fontColor=#AFB9C7;fillColor=#383E47;rounded=1;" parent="rad2TlyHusP4lz5AHPMq-1" vertex="1">
          <mxGeometry x="558" y="1062" width="40" height="40" as="geometry" />
        </mxCell>
        <mxCell id="rad2TlyHusP4lz5AHPMq-122" value="9" style="whiteSpace=wrap;html=1;aspect=fixed;fontSize=17;fontFamily=Verdana;fontStyle=1;fontColor=#AFB9C7;fillColor=#383E47;rounded=1;" parent="rad2TlyHusP4lz5AHPMq-1" vertex="1">
          <mxGeometry x="598" y="1077" width="40" height="40" as="geometry" />
        </mxCell>
        <mxCell id="rad2TlyHusP4lz5AHPMq-123" value="0" style="whiteSpace=wrap;html=1;aspect=fixed;fontSize=17;fontFamily=Verdana;fontStyle=1;fontColor=#AFB9C7;fillColor=#383E47;rounded=1;" parent="rad2TlyHusP4lz5AHPMq-1" vertex="1">
          <mxGeometry x="638" y="1104" width="40" height="40" as="geometry" />
        </mxCell>
        <mxCell id="rad2TlyHusP4lz5AHPMq-124" value="-" style="whiteSpace=wrap;html=1;aspect=fixed;fontSize=17;fontFamily=Verdana;fontStyle=1;fontColor=#AFB9C7;fillColor=#383E47;rounded=1;" parent="rad2TlyHusP4lz5AHPMq-1" vertex="1">
          <mxGeometry x="478" y="1125" width="40" height="40" as="geometry" />
        </mxCell>
        <mxCell id="rad2TlyHusP4lz5AHPMq-125" value="4" style="whiteSpace=wrap;html=1;aspect=fixed;fontSize=17;fontFamily=Verdana;fontStyle=1;fontColor=#000000;fillColor=#FFB366;rounded=1;strokeColor=#D79B00;" parent="rad2TlyHusP4lz5AHPMq-1" vertex="1">
          <mxGeometry x="518" y="1117" width="40" height="40" as="geometry" />
        </mxCell>
        <mxCell id="rad2TlyHusP4lz5AHPMq-126" value="5" style="whiteSpace=wrap;html=1;aspect=fixed;fontSize=17;fontFamily=Verdana;fontStyle=1;fontColor=#000000;fillColor=#FFB366;rounded=1;strokeColor=#D79B00;" parent="rad2TlyHusP4lz5AHPMq-1" vertex="1">
          <mxGeometry x="558" y="1102" width="40" height="40" as="geometry" />
        </mxCell>
        <mxCell id="rad2TlyHusP4lz5AHPMq-127" value="6" style="whiteSpace=wrap;html=1;aspect=fixed;fontSize=17;fontFamily=Verdana;fontStyle=1;fontColor=#000000;fillColor=#FFB366;rounded=1;strokeColor=#D79B00;" parent="rad2TlyHusP4lz5AHPMq-1" vertex="1">
          <mxGeometry x="597.5" y="1117" width="40" height="40" as="geometry" />
        </mxCell>
        <mxCell id="rad2TlyHusP4lz5AHPMq-128" value="," style="whiteSpace=wrap;html=1;aspect=fixed;fontSize=17;fontFamily=Verdana;fontStyle=1;fontColor=#000000;fillColor=#FFB366;rounded=1;strokeColor=#D79B00;" parent="rad2TlyHusP4lz5AHPMq-1" vertex="1">
          <mxGeometry x="638" y="1144" width="40" height="40" as="geometry" />
        </mxCell>
        <mxCell id="rad2TlyHusP4lz5AHPMq-129" value="+" style="whiteSpace=wrap;html=1;aspect=fixed;fontSize=14;fontFamily=Verdana;fontStyle=1;fontColor=#AFB9C7;fillColor=#383E47;rounded=1;" parent="rad2TlyHusP4lz5AHPMq-1" vertex="1">
          <mxGeometry x="477.5" y="1165" width="40" height="40" as="geometry" />
        </mxCell>
        <mxCell id="rad2TlyHusP4lz5AHPMq-130" value="1" style="whiteSpace=wrap;html=1;aspect=fixed;fontSize=17;fontFamily=Verdana;fontStyle=1;fontColor=#AFB9C7;fillColor=#383E47;rounded=1;" parent="rad2TlyHusP4lz5AHPMq-1" vertex="1">
          <mxGeometry x="518" y="1157" width="40" height="40" as="geometry" />
        </mxCell>
        <mxCell id="rad2TlyHusP4lz5AHPMq-131" value="2" style="whiteSpace=wrap;html=1;aspect=fixed;fontSize=17;fontFamily=Verdana;fontStyle=1;fontColor=#AFB9C7;fillColor=#383E47;rounded=1;" parent="rad2TlyHusP4lz5AHPMq-1" vertex="1">
          <mxGeometry x="558" y="1142" width="40" height="40" as="geometry" />
        </mxCell>
        <mxCell id="rad2TlyHusP4lz5AHPMq-132" value="3" style="whiteSpace=wrap;html=1;aspect=fixed;fontSize=17;fontFamily=Verdana;fontStyle=1;fontColor=#AFB9C7;fillColor=#383E47;rounded=1;" parent="rad2TlyHusP4lz5AHPMq-1" vertex="1">
          <mxGeometry x="598" y="1157" width="40" height="40" as="geometry" />
        </mxCell>
        <mxCell id="rad2TlyHusP4lz5AHPMq-133" value="," style="whiteSpace=wrap;html=1;aspect=fixed;fontSize=17;fontFamily=Verdana;fontStyle=1;fontColor=#AFB9C7;fillColor=#383E47;rounded=1;" parent="rad2TlyHusP4lz5AHPMq-1" vertex="1">
          <mxGeometry x="638" y="1184" width="40" height="40" as="geometry" />
        </mxCell>
        <mxCell id="rad2TlyHusP4lz5AHPMq-134" value="bs" style="whiteSpace=wrap;html=1;aspect=fixed;rotation=-30;fontSize=17;fontFamily=Verdana;fontStyle=1;fontColor=#AFB9C7;fillColor=#383E47;strokeColor=#F0F0F0;rounded=1;shadow=0;glass=0;sketch=0;" parent="rad2TlyHusP4lz5AHPMq-1" vertex="1">
          <mxGeometry x="450" y="1229" width="40" height="40" as="geometry" />
        </mxCell>
        <mxCell id="rad2TlyHusP4lz5AHPMq-135" value="0" style="whiteSpace=wrap;html=1;aspect=fixed;rotation=-15;fontSize=17;fontFamily=Verdana;fontStyle=1;fontColor=#AFB9C7;fillColor=#383E47;strokeColor=#F0F0F0;rounded=1;shadow=0;glass=0;sketch=0;" parent="rad2TlyHusP4lz5AHPMq-1" vertex="1">
          <mxGeometry x="498" y="1211" width="40" height="40" as="geometry" />
        </mxCell>
        <mxCell id="rad2TlyHusP4lz5AHPMq-136" value="num" style="rounded=0;whiteSpace=wrap;html=1;fontFamily=Verdana;fontSize=17;fontStyle=1;fillColor=#6A00FF;strokeColor=#3700CC;fontColor=#ffffff;" parent="rad2TlyHusP4lz5AHPMq-1" vertex="1">
          <mxGeometry x="287.5" y="1032" width="210" height="30" as="geometry" />
        </mxCell>
        <mxCell id="rad2TlyHusP4lz5AHPMq-137" value="F6" style="whiteSpace=wrap;html=1;aspect=fixed;fontSize=14;fontFamily=Verdana;fontStyle=1;fontColor=#302316;fillColor=#FFB86C;rounded=1;strokeColor=#D79B00;" parent="rad2TlyHusP4lz5AHPMq-1" vertex="1">
          <mxGeometry x="98" y="819" width="40" height="40" as="geometry" />
        </mxCell>
        <mxCell id="rad2TlyHusP4lz5AHPMq-138" value="&lt;font style=&quot;font-size: 11px;&quot;&gt;Select &lt;br&gt;BlueTooth&lt;br&gt;profile&lt;/font&gt;" style="text;html=1;strokeColor=none;fillColor=none;align=center;verticalAlign=middle;whiteSpace=wrap;rounded=0;shadow=0;glass=0;sketch=0;fontFamily=Verdana;fontSize=14;fontColor=#3399FF;" parent="rad2TlyHusP4lz5AHPMq-1" vertex="1">
          <mxGeometry x="163" y="1322" width="70" height="50" as="geometry" />
        </mxCell>
        <mxCell id="K7AJWWNZJLi40_pLa5la-8" style="edgeStyle=orthogonalEdgeStyle;rounded=1;orthogonalLoop=1;jettySize=auto;html=1;entryX=0;entryY=0;entryDx=0;entryDy=0;fontSize=14;fontColor=#FFFFFF;strokeColor=#6C8EBF;" parent="rad2TlyHusP4lz5AHPMq-1" target="rad2TlyHusP4lz5AHPMq-202" edge="1">
          <mxGeometry relative="1" as="geometry">
            <mxPoint x="85" y="1410" as="sourcePoint" />
            <Array as="points">
              <mxPoint x="85" y="1485" />
            </Array>
          </mxGeometry>
        </mxCell>
        <mxCell id="rad2TlyHusP4lz5AHPMq-139" value="&lt;span style=&quot;font-size: 11px;&quot;&gt;unpair the current &lt;br&gt;BT profile&lt;/span&gt;" style="text;html=1;strokeColor=none;fillColor=none;align=center;verticalAlign=middle;whiteSpace=wrap;rounded=0;shadow=0;glass=0;sketch=0;fontFamily=Verdana;fontSize=14;fontColor=#3399FF;" parent="rad2TlyHusP4lz5AHPMq-1" vertex="1">
          <mxGeometry x="57.5" y="1367" width="111" height="40" as="geometry" />
        </mxCell>
        <mxCell id="rad2TlyHusP4lz5AHPMq-140" value="Sym" style="whiteSpace=wrap;html=1;aspect=fixed;rotation=15;fontSize=17;fontFamily=Verdana;fontStyle=1;fillColor=#a20025;strokeColor=#6F0000;fontColor=#ffffff;rounded=1;" parent="rad2TlyHusP4lz5AHPMq-1" vertex="1">
          <mxGeometry x="238" y="246" width="40" height="40" as="geometry" />
        </mxCell>
        <mxCell id="rad2TlyHusP4lz5AHPMq-141" value="Spc" style="whiteSpace=wrap;html=1;aspect=fixed;rotation=30;fontSize=17;fontFamily=Verdana;fontStyle=1;fontColor=#AFB9C7;fillColor=#383E47;rounded=1;align=center;verticalAlign=middle;" parent="rad2TlyHusP4lz5AHPMq-1" vertex="1">
          <mxGeometry x="286" y="264" width="40" height="40" as="geometry" />
        </mxCell>
        <mxCell id="rad2TlyHusP4lz5AHPMq-142" value="fnc&lt;br&gt;nav" style="whiteSpace=wrap;html=1;aspect=fixed;rotation=-15;fontSize=17;fontFamily=Verdana;fontStyle=1;fillColor=#1ba1e2;strokeColor=#006EAF;fontColor=#ffffff;rounded=1;" parent="rad2TlyHusP4lz5AHPMq-1" vertex="1">
          <mxGeometry x="498" y="246" width="40" height="40" as="geometry" />
        </mxCell>
        <mxCell id="rad2TlyHusP4lz5AHPMq-143" value="Sym" style="whiteSpace=wrap;html=1;aspect=fixed;rotation=15;fontSize=17;fontFamily=Verdana;fontStyle=1;fillColor=#a20025;strokeColor=#6F0000;fontColor=#ffffff;rounded=1;" parent="rad2TlyHusP4lz5AHPMq-1" vertex="1">
          <mxGeometry x="238" y="246" width="40" height="40" as="geometry" />
        </mxCell>
        <mxCell id="rad2TlyHusP4lz5AHPMq-144" value="Spc" style="whiteSpace=wrap;html=1;aspect=fixed;rotation=30;fontSize=17;fontFamily=Verdana;fontStyle=1;fontColor=#AFB9C7;fillColor=#383E47;rounded=1;align=center;verticalAlign=middle;" parent="rad2TlyHusP4lz5AHPMq-1" vertex="1">
          <mxGeometry x="286" y="264" width="40" height="40" as="geometry" />
        </mxCell>
        <mxCell id="rad2TlyHusP4lz5AHPMq-145" value="fnc&lt;br&gt;nav" style="whiteSpace=wrap;html=1;aspect=fixed;rotation=-15;fontSize=17;fontFamily=Verdana;fontStyle=1;fillColor=#1ba1e2;strokeColor=#006EAF;fontColor=#ffffff;rounded=1;" parent="rad2TlyHusP4lz5AHPMq-1" vertex="1">
          <mxGeometry x="498" y="246" width="40" height="40" as="geometry" />
        </mxCell>
        <mxCell id="rad2TlyHusP4lz5AHPMq-146" value="Sym" style="whiteSpace=wrap;html=1;aspect=fixed;rotation=15;fontSize=17;fontFamily=Verdana;fontStyle=1;fillColor=#a20025;strokeColor=#6F0000;fontColor=#ffffff;rounded=1;" parent="rad2TlyHusP4lz5AHPMq-1" vertex="1">
          <mxGeometry x="238" y="246" width="40" height="40" as="geometry" />
        </mxCell>
        <mxCell id="rad2TlyHusP4lz5AHPMq-147" value="Spc" style="whiteSpace=wrap;html=1;aspect=fixed;rotation=30;fontSize=17;fontFamily=Verdana;fontStyle=1;fontColor=#AFB9C7;fillColor=#383E47;rounded=1;align=center;verticalAlign=middle;" parent="rad2TlyHusP4lz5AHPMq-1" vertex="1">
          <mxGeometry x="286" y="264" width="40" height="40" as="geometry" />
        </mxCell>
        <mxCell id="rad2TlyHusP4lz5AHPMq-148" value="fnc&lt;br&gt;nav" style="whiteSpace=wrap;html=1;aspect=fixed;rotation=-15;fontSize=17;fontFamily=Verdana;fontStyle=1;fillColor=#1ba1e2;strokeColor=#006EAF;fontColor=#ffffff;rounded=1;" parent="rad2TlyHusP4lz5AHPMq-1" vertex="1">
          <mxGeometry x="498" y="246" width="40" height="40" as="geometry" />
        </mxCell>
        <mxCell id="rad2TlyHusP4lz5AHPMq-149" value="Sym" style="whiteSpace=wrap;html=1;aspect=fixed;rotation=15;fontSize=17;fontFamily=Verdana;fontStyle=1;fillColor=#a20025;strokeColor=#6F0000;fontColor=#ffffff;rounded=1;" parent="rad2TlyHusP4lz5AHPMq-1" vertex="1">
          <mxGeometry x="238" y="246" width="40" height="40" as="geometry" />
        </mxCell>
        <mxCell id="rad2TlyHusP4lz5AHPMq-150" value="Spc" style="whiteSpace=wrap;html=1;aspect=fixed;rotation=30;fontSize=17;fontFamily=Verdana;fontStyle=1;fontColor=#AFB9C7;fillColor=#383E47;rounded=1;align=center;verticalAlign=middle;" parent="rad2TlyHusP4lz5AHPMq-1" vertex="1">
          <mxGeometry x="286" y="264" width="40" height="40" as="geometry" />
        </mxCell>
        <mxCell id="rad2TlyHusP4lz5AHPMq-151" value="fnc&lt;br&gt;nav" style="whiteSpace=wrap;html=1;aspect=fixed;rotation=-15;fontSize=17;fontFamily=Verdana;fontStyle=1;fillColor=#1ba1e2;strokeColor=#006EAF;fontColor=#ffffff;rounded=1;" parent="rad2TlyHusP4lz5AHPMq-1" vertex="1">
          <mxGeometry x="498" y="246" width="40" height="40" as="geometry" />
        </mxCell>
        <mxCell id="rad2TlyHusP4lz5AHPMq-152" value="Sym" style="whiteSpace=wrap;html=1;aspect=fixed;rotation=15;fontSize=17;fontFamily=Verdana;fontStyle=1;fillColor=#a20025;strokeColor=#6F0000;fontColor=#ffffff;rounded=1;" parent="rad2TlyHusP4lz5AHPMq-1" vertex="1">
          <mxGeometry x="238" y="246" width="40" height="40" as="geometry" />
        </mxCell>
        <mxCell id="rad2TlyHusP4lz5AHPMq-153" value="Spc" style="whiteSpace=wrap;html=1;aspect=fixed;rotation=30;fontSize=17;fontFamily=Verdana;fontStyle=1;fontColor=#AFB9C7;fillColor=#383E47;rounded=1;align=center;verticalAlign=middle;" parent="rad2TlyHusP4lz5AHPMq-1" vertex="1">
          <mxGeometry x="286" y="264" width="40" height="40" as="geometry" />
        </mxCell>
        <mxCell id="rad2TlyHusP4lz5AHPMq-154" value="fnc&lt;br&gt;nav" style="whiteSpace=wrap;html=1;aspect=fixed;rotation=-15;fontSize=17;fontFamily=Verdana;fontStyle=1;fillColor=#1ba1e2;strokeColor=#006EAF;fontColor=#ffffff;rounded=1;" parent="rad2TlyHusP4lz5AHPMq-1" vertex="1">
          <mxGeometry x="498" y="246" width="40" height="40" as="geometry" />
        </mxCell>
        <mxCell id="rad2TlyHusP4lz5AHPMq-155" value="&lt;span style=&quot;color: rgb(255, 255, 255);&quot;&gt;Ext&lt;/span&gt;" style="whiteSpace=wrap;html=1;aspect=fixed;rotation=15;fontSize=17;fontFamily=Verdana;fontStyle=1;fontColor=#333333;fillColor=#60A917;strokeColor=#2D7600;rounded=1;shadow=0;glass=0;sketch=0;" parent="rad2TlyHusP4lz5AHPMq-1" vertex="1">
          <mxGeometry x="238" y="886" width="40" height="40" as="geometry" />
        </mxCell>
        <mxCell id="rad2TlyHusP4lz5AHPMq-156" value="&lt;div&gt;tab&lt;/div&gt;(num)" style="whiteSpace=wrap;html=1;aspect=fixed;rotation=15;fontSize=14;fontFamily=Verdana;fontStyle=1;fillColor=#6A00FF;strokeColor=#3700CC;fontColor=#ffffff;rounded=1;" parent="rad2TlyHusP4lz5AHPMq-1" vertex="1">
          <mxGeometry x="238" y="246" width="40" height="40" as="geometry" />
        </mxCell>
        <mxCell id="rad2TlyHusP4lz5AHPMq-157" value="Spc" style="whiteSpace=wrap;html=1;aspect=fixed;rotation=30;fontSize=14;fontFamily=Verdana;fontStyle=1;fontColor=#AFB9C7;fillColor=#383E47;rounded=1;align=center;verticalAlign=middle;strokeColor=#AFB9C7;" parent="rad2TlyHusP4lz5AHPMq-1" vertex="1">
          <mxGeometry x="286" y="264" width="40" height="40" as="geometry" />
        </mxCell>
        <mxCell id="rad2TlyHusP4lz5AHPMq-158" style="rounded=1;orthogonalLoop=1;jettySize=auto;html=1;fontSize=14;fontColor=#F0F0F0;exitX=0.5;exitY=1;exitDx=0;exitDy=0;edgeStyle=orthogonalEdgeStyle;" parent="rad2TlyHusP4lz5AHPMq-1" source="rad2TlyHusP4lz5AHPMq-159" target="rad2TlyHusP4lz5AHPMq-209" edge="1">
          <mxGeometry relative="1" as="geometry">
            <Array as="points">
              <mxPoint x="480" y="310" />
            </Array>
          </mxGeometry>
        </mxCell>
        <mxCell id="rad2TlyHusP4lz5AHPMq-159" value="bs&lt;br&gt;&lt;div&gt;(sym)&lt;/div&gt;" style="whiteSpace=wrap;html=1;aspect=fixed;rotation=-30;fontSize=14;fontFamily=Verdana;fontStyle=1;fontColor=#ffffff;fillColor=#A20025;rounded=1;strokeColor=#6F0000;" parent="rad2TlyHusP4lz5AHPMq-1" vertex="1">
          <mxGeometry x="450" y="264" width="40" height="40" as="geometry" />
        </mxCell>
        <mxCell id="rad2TlyHusP4lz5AHPMq-160" style="edgeStyle=orthogonalEdgeStyle;rounded=1;orthogonalLoop=1;jettySize=auto;html=1;fontSize=14;fontColor=#F0F0F0;exitX=0.5;exitY=1;exitDx=0;exitDy=0;" parent="rad2TlyHusP4lz5AHPMq-1" source="rad2TlyHusP4lz5AHPMq-161" target="rad2TlyHusP4lz5AHPMq-209" edge="1">
          <mxGeometry relative="1" as="geometry">
            <Array as="points">
              <mxPoint x="523" y="310" />
            </Array>
          </mxGeometry>
        </mxCell>
        <mxCell id="rad2TlyHusP4lz5AHPMq-161" value="Esc&lt;br style=&quot;font-size: 14px;&quot;&gt;(nav)" style="whiteSpace=wrap;html=1;aspect=fixed;rotation=-15;fontSize=14;fontFamily=Verdana;fontStyle=1;fillColor=#1ba1e2;strokeColor=#006EAF;fontColor=#FFFFFF;rounded=1;" parent="rad2TlyHusP4lz5AHPMq-1" vertex="1">
          <mxGeometry x="498" y="246" width="40" height="40" as="geometry" />
        </mxCell>
        <mxCell id="rad2TlyHusP4lz5AHPMq-162" value="/" style="whiteSpace=wrap;html=1;aspect=fixed;rotation=30;fontSize=14;fontFamily=Verdana;fontStyle=1;fontColor=#AFB9C7;fillColor=#383E47;strokeColor=#F0F0F0;rounded=1;" parent="rad2TlyHusP4lz5AHPMq-1" vertex="1">
          <mxGeometry x="286" y="576" width="40" height="40" as="geometry" />
        </mxCell>
        <mxCell id="rad2TlyHusP4lz5AHPMq-163" value="&lt;span style=&quot;font-size: 14px;&quot;&gt;&lt;font&gt;sym&lt;/font&gt;&lt;br style=&quot;font-size: 14px;&quot;&gt;&lt;/span&gt;" style="whiteSpace=wrap;html=1;aspect=fixed;rotation=-30;fontSize=14;fontFamily=Verdana;fontStyle=1;fontColor=#AFB9C7;fillColor=#383E47;rounded=1;strokeColor=#F0F0F0;gradientColor=none;dashed=1;" parent="rad2TlyHusP4lz5AHPMq-1" vertex="1">
          <mxGeometry x="449" y="576" width="40" height="40" as="geometry" />
        </mxCell>
        <mxCell id="rad2TlyHusP4lz5AHPMq-164" value="" style="whiteSpace=wrap;html=1;aspect=fixed;rotation=15;fontSize=14;fontFamily=Verdana;fontStyle=1;fontColor=#333333;fillColor=#383E47;strokeColor=#F0F0F0;rounded=1;shadow=0;glass=0;sketch=0;" parent="rad2TlyHusP4lz5AHPMq-1" vertex="1">
          <mxGeometry x="238" y="886" width="40" height="40" as="geometry" />
        </mxCell>
        <mxCell id="rad2TlyHusP4lz5AHPMq-166" value="&lt;div style=&quot;text-align: center;&quot;&gt;&lt;span style=&quot;background-color: initial; font-size: 11px;&quot;&gt;&lt;font face=&quot;Verdana&quot; color=&quot;#3399ff&quot;&gt;Toggle between USB and BLE output if cable is connected&lt;/font&gt;&lt;/span&gt;&lt;/div&gt;" style="text;whiteSpace=wrap;html=1;fontSize=14;fontColor=#AFB9C7;" parent="rad2TlyHusP4lz5AHPMq-1" vertex="1">
          <mxGeometry x="43" y="1591" width="150" height="60" as="geometry" />
        </mxCell>
        <mxCell id="rad2TlyHusP4lz5AHPMq-167" style="edgeStyle=orthogonalEdgeStyle;rounded=1;orthogonalLoop=1;jettySize=auto;html=1;fontSize=11;strokeColor=#6C8EBF;exitX=0.5;exitY=0;exitDx=0;exitDy=0;entryX=0.5;entryY=1;entryDx=0;entryDy=0;" parent="rad2TlyHusP4lz5AHPMq-1" source="rad2TlyHusP4lz5AHPMq-166" target="rad2TlyHusP4lz5AHPMq-199" edge="1">
          <mxGeometry relative="1" as="geometry">
            <mxPoint x="108" y="1262" as="sourcePoint" />
            <mxPoint x="128.5" y="1232" as="targetPoint" />
          </mxGeometry>
        </mxCell>
        <mxCell id="rad2TlyHusP4lz5AHPMq-168" value="&lt;b&gt;Settings&lt;/b&gt;" style="rounded=0;whiteSpace=wrap;html=1;fontFamily=Verdana;fontSize=17;fillColor=#FF9933;strokeColor=#666600;fontStyle=0;fontColor=#ffffff;" parent="rad2TlyHusP4lz5AHPMq-1" vertex="1">
          <mxGeometry x="288" y="1372" width="210" height="30" as="geometry" />
        </mxCell>
        <mxCell id="rad2TlyHusP4lz5AHPMq-169" value="BT 2" style="whiteSpace=wrap;html=1;aspect=fixed;fontSize=14;fontFamily=Verdana;fontStyle=1;fontColor=#383E47;fillColor=#5C8CCA;rounded=1;strokeColor=#5C8CCA;" parent="rad2TlyHusP4lz5AHPMq-1" vertex="1">
          <mxGeometry x="178" y="1402" width="40" height="40" as="geometry" />
        </mxCell>
        <mxCell id="rad2TlyHusP4lz5AHPMq-170" value="BT 3" style="whiteSpace=wrap;html=1;aspect=fixed;fontSize=14;fontFamily=Verdana;fontStyle=1;fontColor=#383E47;fillColor=#5C8CCA;rounded=1;strokeColor=#5C8CCA;" parent="rad2TlyHusP4lz5AHPMq-1" vertex="1">
          <mxGeometry x="217.5" y="1417" width="40" height="40" as="geometry" />
        </mxCell>
        <mxCell id="rad2TlyHusP4lz5AHPMq-171" value="BT 4" style="whiteSpace=wrap;html=1;aspect=fixed;fontSize=14;fontFamily=Verdana;fontStyle=1;fontColor=#383E47;fillColor=#5C8CCA;rounded=1;strokeColor=#5C8CCA;" parent="rad2TlyHusP4lz5AHPMq-1" vertex="1">
          <mxGeometry x="257.5" y="1425" width="40" height="40" as="geometry" />
        </mxCell>
        <mxCell id="rad2TlyHusP4lz5AHPMq-172" value="" style="whiteSpace=wrap;html=1;aspect=fixed;fontSize=17;fontFamily=Verdana;fontStyle=1;fontColor=#AFB9C7;fillColor=#383E47;rounded=1;" parent="rad2TlyHusP4lz5AHPMq-1" vertex="1">
          <mxGeometry x="216.5" y="1457" width="40" height="40" as="geometry" />
        </mxCell>
        <mxCell id="rad2TlyHusP4lz5AHPMq-173" value="" style="whiteSpace=wrap;html=1;aspect=fixed;fontSize=17;fontFamily=Verdana;fontStyle=1;fontColor=#AFB9C7;fillColor=#383E47;rounded=1;" parent="rad2TlyHusP4lz5AHPMq-1" vertex="1">
          <mxGeometry x="257.5" y="1465" width="40" height="40" as="geometry" />
        </mxCell>
        <mxCell id="rad2TlyHusP4lz5AHPMq-174" value="out&lt;br style=&quot;font-size: 14px;&quot;&gt;usb" style="whiteSpace=wrap;html=1;aspect=fixed;fontSize=14;fontFamily=Verdana;fontStyle=1;fontColor=#AFB9C7;fillColor=#383E47;rounded=1;" parent="rad2TlyHusP4lz5AHPMq-1" vertex="1">
          <mxGeometry x="137.5" y="1497" width="40" height="40" as="geometry" />
        </mxCell>
        <mxCell id="rad2TlyHusP4lz5AHPMq-175" value="" style="whiteSpace=wrap;html=1;aspect=fixed;fontSize=17;fontFamily=Verdana;fontStyle=1;fontColor=#AFB9C7;fillColor=#383E47;rounded=1;" parent="rad2TlyHusP4lz5AHPMq-1" vertex="1">
          <mxGeometry x="177.5" y="1482" width="40" height="40" as="geometry" />
        </mxCell>
        <mxCell id="rad2TlyHusP4lz5AHPMq-176" value="" style="whiteSpace=wrap;html=1;aspect=fixed;fontSize=17;fontFamily=Verdana;fontStyle=1;fontColor=#AFB9C7;fillColor=#383E47;rounded=1;" parent="rad2TlyHusP4lz5AHPMq-1" vertex="1">
          <mxGeometry x="218" y="1497" width="40" height="40" as="geometry" />
        </mxCell>
        <mxCell id="rad2TlyHusP4lz5AHPMq-177" value="BL" style="whiteSpace=wrap;html=1;aspect=fixed;fontSize=14;fontFamily=Verdana;fontStyle=1;fontColor=#AFB9C7;fillColor=#383E47;rounded=1;" parent="rad2TlyHusP4lz5AHPMq-1" vertex="1">
          <mxGeometry x="258" y="1505" width="40" height="40" as="geometry" />
        </mxCell>
        <mxCell id="rad2TlyHusP4lz5AHPMq-178" value="&lt;span style=&quot;color: rgb(255, 255, 255);&quot;&gt;Ext&lt;/span&gt;" style="whiteSpace=wrap;html=1;aspect=fixed;rotation=15;fontSize=17;fontFamily=Verdana;fontStyle=1;fontColor=#333333;fillColor=#60A917;strokeColor=#2D7600;rounded=1;shadow=0;glass=0;sketch=0;" parent="rad2TlyHusP4lz5AHPMq-1" vertex="1">
          <mxGeometry x="237.5" y="1551" width="40" height="40" as="geometry" />
        </mxCell>
        <mxCell id="rad2TlyHusP4lz5AHPMq-179" value="&lt;div&gt;&lt;font&gt;Spc&lt;/font&gt;&lt;/div&gt;&lt;div&gt;&lt;span style=&quot;font-family: &amp;quot;segoe ui emoji&amp;quot;, &amp;quot;apple color emoji&amp;quot;, &amp;quot;noto color emoji&amp;quot;; font-size: 14px;&quot;&gt;&lt;/span&gt;&lt;/div&gt;&lt;div&gt;&lt;span style=&quot;font-family: &amp;quot;segoe ui emoji&amp;quot;, &amp;quot;apple color emoji&amp;quot;, &amp;quot;noto color emoji&amp;quot;; font-size: 14px;&quot;&gt;&lt;/span&gt;&lt;/div&gt;" style="whiteSpace=wrap;html=1;aspect=fixed;rotation=30;fontSize=14;fontFamily=Verdana;fontStyle=1;fontColor=#AFB9C7;fillColor=#383E47;rounded=1;strokeColor=#F0F0F0;" parent="rad2TlyHusP4lz5AHPMq-1" vertex="1">
          <mxGeometry x="285.5" y="1569" width="40" height="40" as="geometry" />
        </mxCell>
        <mxCell id="rad2TlyHusP4lz5AHPMq-180" value="" style="whiteSpace=wrap;html=1;aspect=fixed;fontSize=11;fontFamily=Verdana;fontStyle=1;fontColor=#AFB9C7;fillColor=#383E47;rounded=1;" parent="rad2TlyHusP4lz5AHPMq-1" vertex="1">
          <mxGeometry x="477.5" y="1425" width="40" height="40" as="geometry" />
        </mxCell>
        <mxCell id="rad2TlyHusP4lz5AHPMq-181" value="" style="whiteSpace=wrap;html=1;aspect=fixed;fontSize=11;fontFamily=Verdana;fontStyle=1;fontColor=#AFB9C7;fillColor=#383E47;rounded=1;" parent="rad2TlyHusP4lz5AHPMq-1" vertex="1">
          <mxGeometry x="517.5" y="1417" width="40" height="40" as="geometry" />
        </mxCell>
        <mxCell id="rad2TlyHusP4lz5AHPMq-182" value="" style="whiteSpace=wrap;html=1;aspect=fixed;fontSize=16;fontFamily=Verdana;fontStyle=1;fontColor=#AFB9C7;fillColor=#383E47;rounded=1;" parent="rad2TlyHusP4lz5AHPMq-1" vertex="1">
          <mxGeometry x="557.5" y="1402" width="40" height="40" as="geometry" />
        </mxCell>
        <mxCell id="rad2TlyHusP4lz5AHPMq-183" value="" style="whiteSpace=wrap;html=1;aspect=fixed;fontSize=11;fontFamily=Verdana;fontStyle=1;fontColor=#AFB9C7;fillColor=#383E47;rounded=1;" parent="rad2TlyHusP4lz5AHPMq-1" vertex="1">
          <mxGeometry x="597.5" y="1417" width="40" height="40" as="geometry" />
        </mxCell>
        <mxCell id="rad2TlyHusP4lz5AHPMq-184" value="" style="whiteSpace=wrap;html=1;aspect=fixed;fontSize=11;fontFamily=Verdana;fontStyle=1;fontColor=#AFB9C7;fillColor=#383E47;rounded=1;" parent="rad2TlyHusP4lz5AHPMq-1" vertex="1">
          <mxGeometry x="637.5" y="1443" width="40" height="40" as="geometry" />
        </mxCell>
        <mxCell id="rad2TlyHusP4lz5AHPMq-185" value="" style="whiteSpace=wrap;html=1;aspect=fixed;fontSize=11;fontFamily=Verdana;fontStyle=1;fontColor=#AFB9C7;fillColor=#383E47;rounded=1;" parent="rad2TlyHusP4lz5AHPMq-1" vertex="1">
          <mxGeometry x="477.5" y="1465" width="40" height="40" as="geometry" />
        </mxCell>
        <mxCell id="rad2TlyHusP4lz5AHPMq-186" value="" style="whiteSpace=wrap;html=1;aspect=fixed;fontSize=11;fontFamily=Verdana;fontStyle=1;fontColor=#AFB9C7;fillColor=#383E47;rounded=1;" parent="rad2TlyHusP4lz5AHPMq-1" vertex="1">
          <mxGeometry x="517.5" y="1457" width="40" height="40" as="geometry" />
        </mxCell>
        <mxCell id="rad2TlyHusP4lz5AHPMq-187" value="" style="whiteSpace=wrap;html=1;aspect=fixed;fontSize=11;fontFamily=Verdana;fontStyle=1;fontColor=#AFB9C7;fillColor=#383E47;rounded=1;" parent="rad2TlyHusP4lz5AHPMq-1" vertex="1">
          <mxGeometry x="557.5" y="1442" width="40" height="40" as="geometry" />
        </mxCell>
        <mxCell id="rad2TlyHusP4lz5AHPMq-188" value="" style="whiteSpace=wrap;html=1;aspect=fixed;fontSize=11;fontFamily=Verdana;fontStyle=1;fontColor=#AFB9C7;fillColor=#383E47;rounded=1;" parent="rad2TlyHusP4lz5AHPMq-1" vertex="1">
          <mxGeometry x="597.5" y="1457" width="40" height="40" as="geometry" />
        </mxCell>
        <mxCell id="rad2TlyHusP4lz5AHPMq-189" value="" style="whiteSpace=wrap;html=1;aspect=fixed;fontSize=11;fontFamily=Verdana;fontStyle=1;fontColor=#AFB9C7;fillColor=#383E47;rounded=1;" parent="rad2TlyHusP4lz5AHPMq-1" vertex="1">
          <mxGeometry x="637.5" y="1483" width="40" height="40" as="geometry" />
        </mxCell>
        <mxCell id="rad2TlyHusP4lz5AHPMq-190" value="&lt;span style=&quot;font-size: 14px;&quot;&gt;BL&lt;br&gt;&lt;/span&gt;" style="whiteSpace=wrap;html=1;aspect=fixed;fontSize=17;fontFamily=Verdana;fontStyle=1;fontColor=#AFB9C7;fillColor=#383E47;rounded=1;" parent="rad2TlyHusP4lz5AHPMq-1" vertex="1">
          <mxGeometry x="477.5" y="1505" width="40" height="40" as="geometry" />
        </mxCell>
        <mxCell id="rad2TlyHusP4lz5AHPMq-191" value="" style="whiteSpace=wrap;html=1;aspect=fixed;fontSize=17;fontFamily=Verdana;fontStyle=1;fontColor=#AFB9C7;fillColor=#383E47;rounded=1;" parent="rad2TlyHusP4lz5AHPMq-1" vertex="1">
          <mxGeometry x="517.5" y="1497" width="40" height="40" as="geometry" />
        </mxCell>
        <mxCell id="rad2TlyHusP4lz5AHPMq-192" value="&lt;font style=&quot;font-size: 11px;&quot;&gt;&lt;br&gt;&lt;/font&gt;" style="whiteSpace=wrap;html=1;aspect=fixed;fontSize=17;fontFamily=Verdana;fontStyle=1;fontColor=#AFB9C7;fillColor=#383E47;rounded=1;" parent="rad2TlyHusP4lz5AHPMq-1" vertex="1">
          <mxGeometry x="557.5" y="1482" width="40" height="40" as="geometry" />
        </mxCell>
        <mxCell id="rad2TlyHusP4lz5AHPMq-193" value="" style="whiteSpace=wrap;html=1;aspect=fixed;fontSize=17;fontFamily=Verdana;fontStyle=1;fontColor=#AFB9C7;fillColor=#383E47;rounded=1;" parent="rad2TlyHusP4lz5AHPMq-1" vertex="1">
          <mxGeometry x="597.5" y="1497" width="40" height="40" as="geometry" />
        </mxCell>
        <mxCell id="rad2TlyHusP4lz5AHPMq-194" value="" style="whiteSpace=wrap;html=1;aspect=fixed;fontSize=11;fontFamily=Verdana;fontStyle=1;fontColor=#AFB9C7;fillColor=#383E47;rounded=1;" parent="rad2TlyHusP4lz5AHPMq-1" vertex="1">
          <mxGeometry x="637.5" y="1523" width="40" height="40" as="geometry" />
        </mxCell>
        <mxCell id="rad2TlyHusP4lz5AHPMq-195" value="" style="whiteSpace=wrap;html=1;aspect=fixed;rotation=-15;fontSize=14;fontFamily=Verdana;fontStyle=1;fontColor=#ffffff;fillColor=none;strokeColor=#F0F0F0;rounded=1;dashed=1;" parent="rad2TlyHusP4lz5AHPMq-1" vertex="1">
          <mxGeometry x="497.5" y="1551" width="40" height="40" as="geometry" />
        </mxCell>
        <mxCell id="rad2TlyHusP4lz5AHPMq-196" value="&lt;span style=&quot;color: rgb(255, 255, 255);&quot;&gt;Ext&lt;/span&gt;" style="whiteSpace=wrap;html=1;aspect=fixed;rotation=15;fontSize=17;fontFamily=Verdana;fontStyle=1;fontColor=#333333;fillColor=#60A917;strokeColor=#2D7600;rounded=1;shadow=0;glass=0;sketch=0;" parent="rad2TlyHusP4lz5AHPMq-1" vertex="1">
          <mxGeometry x="237.5" y="1551" width="40" height="40" as="geometry" />
        </mxCell>
        <mxCell id="rad2TlyHusP4lz5AHPMq-197" value="" style="whiteSpace=wrap;html=1;aspect=fixed;rotation=15;fontSize=14;fontFamily=Verdana;fontStyle=1;fontColor=#333333;fillColor=#383E47;strokeColor=#F0F0F0;rounded=1;shadow=0;glass=0;sketch=0;" parent="rad2TlyHusP4lz5AHPMq-1" vertex="1">
          <mxGeometry x="237.5" y="1551" width="40" height="40" as="geometry" />
        </mxCell>
        <mxCell id="rad2TlyHusP4lz5AHPMq-198" value="" style="whiteSpace=wrap;html=1;aspect=fixed;rotation=-30;fontSize=14;fontFamily=Verdana;fontStyle=1;fontColor=#FFFFFF;fillColor=none;strokeColor=#F0F0F0;rounded=1;shadow=0;glass=0;sketch=0;dashed=1;" parent="rad2TlyHusP4lz5AHPMq-1" vertex="1">
          <mxGeometry x="449" y="1569" width="40" height="40" as="geometry" />
        </mxCell>
        <mxCell id="rad2TlyHusP4lz5AHPMq-199" value="out&amp;nbsp;&lt;br style=&quot;font-size: 14px;&quot;&gt;BT" style="whiteSpace=wrap;html=1;aspect=fixed;fontSize=14;fontFamily=Verdana;fontStyle=1;fontColor=#AFB9C7;fillColor=#383E47;rounded=1;" parent="rad2TlyHusP4lz5AHPMq-1" vertex="1">
          <mxGeometry x="97.5" y="1525" width="40" height="40" as="geometry" />
        </mxCell>
        <mxCell id="rad2TlyHusP4lz5AHPMq-200" value="" style="whiteSpace=wrap;html=1;aspect=fixed;fontSize=17;fontFamily=Verdana;fontStyle=1;fontColor=#AFB9C7;fillColor=#383E47;rounded=1;" parent="rad2TlyHusP4lz5AHPMq-1" vertex="1">
          <mxGeometry x="138" y="1457" width="40" height="40" as="geometry" />
        </mxCell>
        <mxCell id="rad2TlyHusP4lz5AHPMq-201" value="" style="whiteSpace=wrap;html=1;aspect=fixed;fontSize=17;fontFamily=Verdana;fontStyle=1;fontColor=#AFB9C7;fillColor=#383E47;rounded=1;" parent="rad2TlyHusP4lz5AHPMq-1" vertex="1">
          <mxGeometry x="178" y="1442" width="40" height="40" as="geometry" />
        </mxCell>
        <mxCell id="rad2TlyHusP4lz5AHPMq-202" value="&lt;span style=&quot;font-size: 14px;&quot;&gt;BT&lt;/span&gt;&lt;br style=&quot;font-size: 14px;&quot;&gt;&lt;span style=&quot;font-size: 14px;&quot;&gt;CRL&lt;/span&gt;&lt;span style=&quot;font-family: monospace; font-size: 0px; font-weight: 400; text-align: start;&quot;&gt;3CmxGraphModel%3E%3Croot%3E%3CmxCell%20id%3D%220%22%2F%3E%3CmxCell%20id%3D%221%22%20parent%3D%220%22%2F%3E%3CmxCell%20id%3D%222%22%20value%3D%22BT%26lt%3Bbr%20style%3D%26quot%3Bfont-size%3A%2014px%3B%26quot%3B%26gt%3BCRL%22%20style%3D%22whiteSpace%3Dwrap%3Bhtml%3D1%3Baspect%3Dfixed%3BfontSize%3D14%3BfontFamily%3DVerdana%3BfontStyle%3D1%3BfillColor%3D%235C8CCA%3BstrokeColor%3D%23456893%3BfontColor%3D%23090e14%3Brounded%3D1%3B%22%20vertex%3D%221%22%20parent%3D%221%22%3E%3CmxGeometry%20x%3D%22270%22%20y%3D%22945%22%20width%3D%2240%22%20height%3D%2240%22%20as%3D%22geometry%22%2F%3E%3C%2FmxCell%3E%3C%2Froot%3E%3C%2FmxGraphModel%3E&lt;/span&gt;" style="whiteSpace=wrap;html=1;aspect=fixed;fontSize=14;fontFamily=Verdana;fontStyle=1;fontColor=#383E47;fillColor=#5C8CCA;rounded=1;strokeColor=#5C8CCA;" parent="rad2TlyHusP4lz5AHPMq-1" vertex="1">
          <mxGeometry x="97.5" y="1485" width="40" height="40" as="geometry" />
        </mxCell>
        <mxCell id="rad2TlyHusP4lz5AHPMq-203" value="BT 0" style="whiteSpace=wrap;html=1;aspect=fixed;fontSize=14;fontFamily=Verdana;fontStyle=1;fontColor=#383E47;fillColor=#5C8CCA;rounded=1;strokeColor=#5C8CCA;" parent="rad2TlyHusP4lz5AHPMq-1" vertex="1">
          <mxGeometry x="98" y="1445" width="40" height="40" as="geometry" />
        </mxCell>
        <mxCell id="rad2TlyHusP4lz5AHPMq-204" value="BT 1" style="whiteSpace=wrap;html=1;aspect=fixed;fontSize=14;fontFamily=Verdana;fontStyle=1;fontColor=#383E47;fillColor=#5C8CCA;rounded=1;strokeColor=#5C8CCA;" parent="rad2TlyHusP4lz5AHPMq-1" vertex="1">
          <mxGeometry x="138" y="1417" width="40" height="40" as="geometry" />
        </mxCell>
        <mxCell id="rad2TlyHusP4lz5AHPMq-205" value="7" style="whiteSpace=wrap;html=1;aspect=fixed;fontSize=17;fontFamily=Verdana;fontStyle=1;fontColor=#000000;fillColor=#FFB366;rounded=1;strokeColor=#D79B00;" parent="rad2TlyHusP4lz5AHPMq-1" vertex="1">
          <mxGeometry x="137.5" y="1117" width="40" height="40" as="geometry" />
        </mxCell>
        <mxCell id="rad2TlyHusP4lz5AHPMq-206" value="" style="whiteSpace=wrap;html=1;aspect=fixed;fontSize=17;fontFamily=Verdana;fontStyle=1;fontColor=#AFB9C7;fillColor=#383E47;rounded=1;" parent="rad2TlyHusP4lz5AHPMq-1" vertex="1">
          <mxGeometry x="98" y="1184" width="40" height="40" as="geometry" />
        </mxCell>
        <mxCell id="rad2TlyHusP4lz5AHPMq-207" value="6" style="whiteSpace=wrap;html=1;aspect=fixed;fontSize=14;fontFamily=Verdana;fontStyle=1;fontColor=#000000;fillColor=#FFB366;rounded=1;strokeColor=#D79B00;" parent="rad2TlyHusP4lz5AHPMq-1" vertex="1">
          <mxGeometry x="97.5" y="1144" width="40" height="40" as="geometry" />
        </mxCell>
        <mxCell id="rad2TlyHusP4lz5AHPMq-208" value="8" style="whiteSpace=wrap;html=1;aspect=fixed;fontSize=17;fontFamily=Verdana;fontStyle=1;fontColor=#000000;fillColor=#FFB366;rounded=1;strokeColor=#D79B00;" parent="rad2TlyHusP4lz5AHPMq-1" vertex="1">
          <mxGeometry x="178" y="1102" width="40" height="40" as="geometry" />
        </mxCell>
        <mxCell id="rad2TlyHusP4lz5AHPMq-209" value="Set" style="whiteSpace=wrap;html=1;aspect=fixed;fontSize=14;fontFamily=Verdana;fontStyle=1;fontColor=#F0F0F0;fillColor=#999900;rounded=1;strokeColor=#666600;" parent="rad2TlyHusP4lz5AHPMq-1" vertex="1">
          <mxGeometry x="580" y="290" width="40" height="40" as="geometry" />
        </mxCell>
        <mxCell id="rad2TlyHusP4lz5AHPMq-210" style="rounded=1;orthogonalLoop=1;jettySize=auto;html=1;fontSize=14;fontColor=#F0F0F0;exitX=0.5;exitY=1;exitDx=0;exitDy=0;edgeStyle=orthogonalEdgeStyle;" parent="rad2TlyHusP4lz5AHPMq-1" target="rad2TlyHusP4lz5AHPMq-212" edge="1">
          <mxGeometry relative="1" as="geometry">
            <mxPoint x="480" y="614.0005080756889" as="sourcePoint" />
            <Array as="points">
              <mxPoint x="480" y="622.6800000000001" />
            </Array>
          </mxGeometry>
        </mxCell>
        <mxCell id="rad2TlyHusP4lz5AHPMq-211" style="edgeStyle=orthogonalEdgeStyle;rounded=1;orthogonalLoop=1;jettySize=auto;html=1;fontSize=14;fontColor=#F0F0F0;exitX=0.5;exitY=1;exitDx=0;exitDy=0;" parent="rad2TlyHusP4lz5AHPMq-1" target="rad2TlyHusP4lz5AHPMq-212" edge="1">
          <mxGeometry relative="1" as="geometry">
            <mxPoint x="523.1763809020504" y="597.9985165257815" as="sourcePoint" />
            <Array as="points">
              <mxPoint x="523" y="622.6800000000001" />
            </Array>
          </mxGeometry>
        </mxCell>
        <mxCell id="rad2TlyHusP4lz5AHPMq-212" value="Set" style="whiteSpace=wrap;html=1;aspect=fixed;fontSize=14;fontFamily=Verdana;fontStyle=1;fontColor=#F0F0F0;fillColor=#999900;rounded=1;strokeColor=#666600;" parent="rad2TlyHusP4lz5AHPMq-1" vertex="1">
          <mxGeometry x="580" y="602.6800000000001" width="40" height="40" as="geometry" />
        </mxCell>
        <mxCell id="rad2TlyHusP4lz5AHPMq-213" style="rounded=1;orthogonalLoop=1;jettySize=auto;html=1;fontSize=14;fontColor=#F0F0F0;exitX=0.5;exitY=1;exitDx=0;exitDy=0;edgeStyle=orthogonalEdgeStyle;shadow=0;" parent="rad2TlyHusP4lz5AHPMq-1" target="rad2TlyHusP4lz5AHPMq-215" edge="1">
          <mxGeometry relative="1" as="geometry">
            <mxPoint x="480" y="942.0005080756888" as="sourcePoint" />
            <Array as="points">
              <mxPoint x="480" y="950.68" />
            </Array>
          </mxGeometry>
        </mxCell>
        <mxCell id="rad2TlyHusP4lz5AHPMq-214" style="edgeStyle=orthogonalEdgeStyle;rounded=1;orthogonalLoop=1;jettySize=auto;html=1;fontSize=14;fontColor=#F0F0F0;exitX=0.5;exitY=1;exitDx=0;exitDy=0;shadow=0;" parent="rad2TlyHusP4lz5AHPMq-1" target="rad2TlyHusP4lz5AHPMq-215" edge="1">
          <mxGeometry relative="1" as="geometry">
            <mxPoint x="523.1763809020504" y="925.9985165257814" as="sourcePoint" />
            <Array as="points">
              <mxPoint x="523" y="950.68" />
            </Array>
          </mxGeometry>
        </mxCell>
        <mxCell id="rad2TlyHusP4lz5AHPMq-215" value="Set" style="whiteSpace=wrap;html=1;aspect=fixed;fontSize=14;fontFamily=Verdana;fontStyle=1;fontColor=#F0F0F0;fillColor=#999900;rounded=1;strokeColor=#666600;shadow=0;" parent="rad2TlyHusP4lz5AHPMq-1" vertex="1">
          <mxGeometry x="580" y="930.68" width="40" height="40" as="geometry" />
        </mxCell>
        <mxCell id="rad2TlyHusP4lz5AHPMq-216" value="Set" style="whiteSpace=wrap;html=1;aspect=fixed;fontSize=14;fontFamily=Verdana;fontStyle=1;fontColor=#F0F0F0;fillColor=#FF9933;rounded=1;strokeColor=#666600;shadow=0;" parent="rad2TlyHusP4lz5AHPMq-1" vertex="1">
          <mxGeometry x="580" y="930.68" width="40" height="40" as="geometry" />
        </mxCell>
        <mxCell id="rad2TlyHusP4lz5AHPMq-217" value="Set" style="whiteSpace=wrap;html=1;aspect=fixed;fontSize=14;fontFamily=Verdana;fontStyle=1;fontColor=#F0F0F0;fillColor=#FF9933;rounded=1;strokeColor=#666600;" parent="rad2TlyHusP4lz5AHPMq-1" vertex="1">
          <mxGeometry x="580" y="602.6800000000001" width="40" height="40" as="geometry" />
        </mxCell>
        <mxCell id="rad2TlyHusP4lz5AHPMq-218" value="Set" style="whiteSpace=wrap;html=1;aspect=fixed;fontSize=14;fontFamily=Verdana;fontStyle=1;fontColor=#F0F0F0;fillColor=#FF9933;rounded=1;strokeColor=#666600;" parent="rad2TlyHusP4lz5AHPMq-1" vertex="1">
          <mxGeometry x="580" y="290" width="40" height="40" as="geometry" />
        </mxCell>
        <mxCell id="rad2TlyHusP4lz5AHPMq-219" value="Set" style="whiteSpace=wrap;html=1;aspect=fixed;fontSize=14;fontFamily=Verdana;fontStyle=1;fontColor=#F0F0F0;fillColor=#FF9933;rounded=1;strokeColor=#666600;" parent="rad2TlyHusP4lz5AHPMq-1" vertex="1">
          <mxGeometry x="580" y="290" width="40" height="40" as="geometry" />
        </mxCell>
        <mxCell id="rad2TlyHusP4lz5AHPMq-220" value="Set" style="whiteSpace=wrap;html=1;aspect=fixed;fontSize=14;fontFamily=Verdana;fontStyle=1;fontColor=#F0F0F0;fillColor=#FF9933;rounded=1;strokeColor=#666600;" parent="rad2TlyHusP4lz5AHPMq-1" vertex="1">
          <mxGeometry x="580" y="602.6800000000001" width="40" height="40" as="geometry" />
        </mxCell>
        <mxCell id="3zF1d5pD222JqCTjUS8y-1" value="Å" style="whiteSpace=wrap;html=1;aspect=fixed;fontSize=17;fontFamily=Verdana;fontStyle=1;fontColor=#AFB9C7;fillColor=#383E47;rounded=1;" parent="rad2TlyHusP4lz5AHPMq-1" vertex="1">
          <mxGeometry x="677.5" y="226" width="40" height="40" as="geometry" />
        </mxCell>
        <mxCell id="3zF1d5pD222JqCTjUS8y-3" value="&lt;font style=&quot;font-size: 9px;&quot;&gt;LCTRL&lt;/font&gt;" style="whiteSpace=wrap;html=1;aspect=fixed;fontSize=17;fontFamily=Verdana;fontStyle=1;fontColor=#AFB9C7;fillColor=#383E47;rounded=1;" parent="rad2TlyHusP4lz5AHPMq-1" vertex="1">
          <mxGeometry x="58" y="224" width="40" height="40" as="geometry" />
        </mxCell>
        <mxCell id="3zF1d5pD222JqCTjUS8y-5" value="" style="whiteSpace=wrap;html=1;aspect=fixed;fontSize=17;fontFamily=Verdana;fontStyle=1;fontColor=#AFB9C7;fillColor=#383E47;rounded=1;" parent="rad2TlyHusP4lz5AHPMq-1" vertex="1">
          <mxGeometry x="58" y="539" width="40" height="40" as="geometry" />
        </mxCell>
        <mxCell id="3zF1d5pD222JqCTjUS8y-7" value="&lt;div style=&quot;font-size: 11px;&quot;&gt;&lt;font style=&quot;font-size: 11px;&quot;&gt;caps&lt;/font&gt;&lt;/div&gt;&lt;div style=&quot;font-size: 11px;&quot;&gt;&lt;font style=&quot;font-size: 11px;&quot;&gt;word&lt;font style=&quot;font-size: 11px;&quot;&gt;&lt;br style=&quot;font-size: 11px;&quot;&gt;&lt;/font&gt;&lt;/font&gt;&lt;/div&gt;" style="whiteSpace=wrap;html=1;aspect=fixed;fontSize=11;fontFamily=Verdana;fontStyle=1;fontColor=#AFB9C7;fillColor=#383E47;rounded=1;" parent="rad2TlyHusP4lz5AHPMq-1" vertex="1">
          <mxGeometry x="58" y="865" width="40" height="40" as="geometry" />
        </mxCell>
        <mxCell id="3zF1d5pD222JqCTjUS8y-9" value="" style="whiteSpace=wrap;html=1;aspect=fixed;fontSize=17;fontFamily=Verdana;fontStyle=1;fontColor=#AFB9C7;fillColor=#383E47;rounded=1;" parent="rad2TlyHusP4lz5AHPMq-1" vertex="1">
          <mxGeometry x="57.5" y="1191" width="40" height="40" as="geometry" />
        </mxCell>
        <mxCell id="3zF1d5pD222JqCTjUS8y-11" value="" style="whiteSpace=wrap;html=1;aspect=fixed;fontSize=17;fontFamily=Verdana;fontStyle=1;fontColor=#AFB9C7;fillColor=#383E47;rounded=1;" parent="rad2TlyHusP4lz5AHPMq-1" vertex="1">
          <mxGeometry x="57.5" y="1532" width="40" height="40" as="geometry" />
        </mxCell>
        <mxCell id="3zF1d5pD222JqCTjUS8y-13" value="" style="whiteSpace=wrap;html=1;aspect=fixed;fontSize=17;fontFamily=Verdana;fontStyle=1;fontColor=#AFB9C7;fillColor=#383E47;rounded=1;" parent="rad2TlyHusP4lz5AHPMq-1" vertex="1">
          <mxGeometry x="678" y="538" width="40" height="40" as="geometry" />
        </mxCell>
        <mxCell id="3zF1d5pD222JqCTjUS8y-17" value="" style="whiteSpace=wrap;html=1;aspect=fixed;fontSize=17;fontFamily=Verdana;fontStyle=1;fontColor=#AFB9C7;fillColor=#383E47;rounded=1;" parent="rad2TlyHusP4lz5AHPMq-1" vertex="1">
          <mxGeometry x="678" y="1188" width="40" height="40" as="geometry" />
        </mxCell>
        <mxCell id="3zF1d5pD222JqCTjUS8y-19" value="&lt;font style=&quot;font-size: 12px;&quot;&gt;default&lt;/font&gt;" style="whiteSpace=wrap;html=1;aspect=fixed;fontSize=17;fontFamily=Verdana;fontStyle=1;fontColor=#AFB9C7;fillColor=#383E47;rounded=1;" parent="rad2TlyHusP4lz5AHPMq-1" vertex="1">
          <mxGeometry x="678" y="1529" width="40" height="40" as="geometry" />
        </mxCell>
        <mxCell id="AuxAhh_R6eT21EtZq-zR-0" value="&lt;div&gt;Ent&lt;/div&gt;" style="whiteSpace=wrap;html=1;aspect=fixed;rotation=40;fontSize=14;fontFamily=Verdana;fontStyle=1;fontColor=#AFB9C7;fillColor=#383E47;rounded=1;align=center;verticalAlign=middle;strokeColor=#F0F0F0;" parent="rad2TlyHusP4lz5AHPMq-1" vertex="1">
          <mxGeometry x="326" y="292" width="40" height="40" as="geometry" />
        </mxCell>
        <mxCell id="AuxAhh_R6eT21EtZq-zR-2" value="" style="whiteSpace=wrap;html=1;aspect=fixed;rotation=40;fontSize=14;fontFamily=Verdana;fontStyle=1;fontColor=#AFB9C7;fillColor=#383E47;rounded=1;align=center;verticalAlign=middle;strokeColor=#F0F0F0;" parent="rad2TlyHusP4lz5AHPMq-1" vertex="1">
          <mxGeometry x="326" y="602.6800000000001" width="40" height="40" as="geometry" />
        </mxCell>
        <mxCell id="AuxAhh_R6eT21EtZq-zR-3" value="" style="whiteSpace=wrap;html=1;aspect=fixed;rotation=40;fontSize=14;fontFamily=Verdana;fontStyle=1;fontColor=#AFB9C7;fillColor=#383E47;rounded=1;align=center;verticalAlign=middle;strokeColor=#F0F0F0;" parent="rad2TlyHusP4lz5AHPMq-1" vertex="1">
          <mxGeometry x="325.5" y="930.6800000000001" width="40" height="40" as="geometry" />
        </mxCell>
        <mxCell id="AuxAhh_R6eT21EtZq-zR-4" value="" style="whiteSpace=wrap;html=1;aspect=fixed;rotation=40;fontSize=14;fontFamily=Verdana;fontStyle=1;fontColor=#AFB9C7;fillColor=#383E47;rounded=1;align=center;verticalAlign=middle;strokeColor=#F0F0F0;" parent="rad2TlyHusP4lz5AHPMq-1" vertex="1">
          <mxGeometry x="326" y="1256" width="40" height="40" as="geometry" />
        </mxCell>
        <mxCell id="AuxAhh_R6eT21EtZq-zR-5" value="" style="whiteSpace=wrap;html=1;aspect=fixed;rotation=40;fontSize=14;fontFamily=Verdana;fontStyle=1;fontColor=#AFB9C7;fillColor=#383E47;rounded=1;align=center;verticalAlign=middle;strokeColor=#F0F0F0;" parent="rad2TlyHusP4lz5AHPMq-1" vertex="1">
          <mxGeometry x="323.5" y="1596" width="40" height="40" as="geometry" />
        </mxCell>
        <mxCell id="AuxAhh_R6eT21EtZq-zR-6" value="" style="whiteSpace=wrap;html=1;aspect=fixed;rotation=-45;fontSize=17;fontFamily=Verdana;fontStyle=1;fontColor=#AFB9C7;fillColor=#383E47;rounded=1;strokeColor=default;" parent="rad2TlyHusP4lz5AHPMq-1" vertex="1">
          <mxGeometry x="412" y="932" width="40" height="40" as="geometry" />
        </mxCell>
        <mxCell id="AuxAhh_R6eT21EtZq-zR-7" value="" style="whiteSpace=wrap;html=1;aspect=fixed;rotation=-45;fontSize=17;fontFamily=Verdana;fontStyle=1;fontColor=#AFB9C7;fillColor=#383E47;rounded=1;strokeColor=default;" parent="rad2TlyHusP4lz5AHPMq-1" vertex="1">
          <mxGeometry x="412" y="604.6800000000001" width="40" height="40" as="geometry" />
        </mxCell>
        <mxCell id="AuxAhh_R6eT21EtZq-zR-8" value="" style="whiteSpace=wrap;html=1;aspect=fixed;rotation=-45;fontSize=17;fontFamily=Verdana;fontStyle=1;fontColor=#AFB9C7;fillColor=#383E47;rounded=1;" parent="rad2TlyHusP4lz5AHPMq-1" vertex="1">
          <mxGeometry x="412" y="1259" width="40" height="40" as="geometry" />
        </mxCell>
        <mxCell id="AuxAhh_R6eT21EtZq-zR-9" value="" style="whiteSpace=wrap;html=1;aspect=fixed;rotation=-45;fontSize=17;fontFamily=Verdana;fontStyle=1;fontColor=#AFB9C7;fillColor=#383E47;rounded=1;strokeColor=default;" parent="rad2TlyHusP4lz5AHPMq-1" vertex="1">
          <mxGeometry x="410" y="1599" width="40" height="40" as="geometry" />
        </mxCell>
        <mxCell id="AuxAhh_R6eT21EtZq-zR-10" value="&lt;font style=&quot;font-size: 9px;&quot;&gt;SHIFT&lt;/font&gt;" style="whiteSpace=wrap;html=1;aspect=fixed;fontSize=14;fontFamily=Verdana;fontStyle=1;fontColor=#AFB9C7;fillColor=#383E47;rounded=1;" parent="rad2TlyHusP4lz5AHPMq-1" vertex="1">
          <mxGeometry x="58" y="184" width="40" height="40" as="geometry" />
        </mxCell>
        <mxCell id="AuxAhh_R6eT21EtZq-zR-11" value="" style="whiteSpace=wrap;html=1;aspect=fixed;fontSize=17;fontFamily=Verdana;fontStyle=1;fontColor=#AFB9C7;fillColor=#383E47;rounded=1;" parent="rad2TlyHusP4lz5AHPMq-1" vertex="1">
          <mxGeometry x="58" y="498" width="40" height="40" as="geometry" />
        </mxCell>
        <mxCell id="AuxAhh_R6eT21EtZq-zR-12" value="`" style="whiteSpace=wrap;html=1;aspect=fixed;fontSize=17;fontFamily=Verdana;fontStyle=1;fontColor=#AFB9C7;fillColor=#383E47;rounded=1;" parent="rad2TlyHusP4lz5AHPMq-1" vertex="1">
          <mxGeometry x="678" y="498" width="40" height="40" as="geometry" />
        </mxCell>
        <mxCell id="AuxAhh_R6eT21EtZq-zR-13" value="" style="whiteSpace=wrap;html=1;aspect=fixed;fontSize=17;fontFamily=Verdana;fontStyle=1;fontColor=#AFB9C7;fillColor=#383E47;rounded=1;" parent="rad2TlyHusP4lz5AHPMq-1" vertex="1">
          <mxGeometry x="58" y="825" width="40" height="40" as="geometry" />
        </mxCell>
        <mxCell id="AuxAhh_R6eT21EtZq-zR-14" value="vol+" style="whiteSpace=wrap;html=1;aspect=fixed;fontSize=11;fontFamily=Verdana;fontStyle=1;fontColor=#AFB9C7;fillColor=#383E47;rounded=1;" parent="rad2TlyHusP4lz5AHPMq-1" vertex="1">
          <mxGeometry x="678" y="824" width="40" height="40" as="geometry" />
        </mxCell>
        <mxCell id="AuxAhh_R6eT21EtZq-zR-15" value="" style="whiteSpace=wrap;html=1;aspect=fixed;fontSize=17;fontFamily=Verdana;fontStyle=1;fontColor=#AFB9C7;fillColor=#383E47;rounded=1;" parent="rad2TlyHusP4lz5AHPMq-1" vertex="1">
          <mxGeometry x="58" y="1151" width="40" height="40" as="geometry" />
        </mxCell>
        <mxCell id="AuxAhh_R6eT21EtZq-zR-16" value="" style="whiteSpace=wrap;html=1;aspect=fixed;fontSize=17;fontFamily=Verdana;fontStyle=1;fontColor=#AFB9C7;fillColor=#383E47;rounded=1;" parent="rad2TlyHusP4lz5AHPMq-1" vertex="1">
          <mxGeometry x="677.5" y="1148" width="40" height="40" as="geometry" />
        </mxCell>
        <mxCell id="AuxAhh_R6eT21EtZq-zR-17" value="" style="whiteSpace=wrap;html=1;aspect=fixed;fontSize=17;fontFamily=Verdana;fontStyle=1;fontColor=#AFB9C7;fillColor=#383E47;rounded=1;" parent="rad2TlyHusP4lz5AHPMq-1" vertex="1">
          <mxGeometry x="58" y="1492" width="40" height="40" as="geometry" />
        </mxCell>
        <mxCell id="AuxAhh_R6eT21EtZq-zR-18" value="" style="whiteSpace=wrap;html=1;aspect=fixed;fontSize=12;fontFamily=Verdana;fontStyle=1;fontColor=#AFB9C7;fillColor=#383E47;rounded=1;" parent="rad2TlyHusP4lz5AHPMq-1" vertex="1">
          <mxGeometry x="678" y="1489" width="40" height="40" as="geometry" />
        </mxCell>
        <mxCell id="AuxAhh_R6eT21EtZq-zR-19" value="Ä" style="whiteSpace=wrap;html=1;aspect=fixed;fontSize=17;fontFamily=Verdana;fontStyle=1;fontColor=#AFB9C7;fillColor=#383E47;rounded=1;" parent="rad2TlyHusP4lz5AHPMq-1" vertex="1">
          <mxGeometry x="677.5" y="186" width="40" height="40" as="geometry" />
        </mxCell>
        <mxCell id="AuxAhh_R6eT21EtZq-zR-20" value="&lt;div style=&quot;font-size: 14px;&quot;&gt;del&lt;/div&gt;" style="whiteSpace=wrap;html=1;aspect=fixed;rotation=-45;fontSize=14;fontFamily=Verdana;fontStyle=1;fontColor=#AFB9C7;fillColor=#383E47;rounded=1;" parent="rad2TlyHusP4lz5AHPMq-1" vertex="1">
          <mxGeometry x="412" y="292.00000000000006" width="40" height="40" as="geometry" />
        </mxCell>
        <mxCell id="K7AJWWNZJLi40_pLa5la-0" value="vol-" style="whiteSpace=wrap;html=1;aspect=fixed;fontSize=11;fontFamily=Verdana;fontStyle=1;fontColor=#AFB9C7;fillColor=#383E47;rounded=1;" parent="rad2TlyHusP4lz5AHPMq-1" vertex="1">
          <mxGeometry x="678" y="864" width="40" height="40" as="geometry" />
        </mxCell>
        <mxCell id="qp-z2aUKeZNKfAr1jdEJ-0" value="" style="whiteSpace=wrap;html=1;aspect=fixed;rotation=15;fontSize=14;fontFamily=Verdana;fontStyle=1;fontColor=#333333;fillColor=#383E47;strokeColor=#F0F0F0;rounded=1;shadow=0;glass=0;sketch=0;" parent="rad2TlyHusP4lz5AHPMq-1" vertex="1">
          <mxGeometry x="238" y="1211" width="40" height="40" as="geometry" />
        </mxCell>
        <mxCell id="DUR_3xD6uI-W_Zdk0ia7-1" value="bs" style="whiteSpace=wrap;html=1;aspect=fixed;rotation=-30;fontSize=17;fontFamily=Verdana;fontStyle=1;fontColor=#AFB9C7;fillColor=#383E47;strokeColor=#F0F0F0;rounded=1;shadow=0;glass=0;sketch=0;" vertex="1" parent="rad2TlyHusP4lz5AHPMq-1">
          <mxGeometry x="448" y="1569" width="40" height="40" as="geometry" />
        </mxCell>
        <mxCell id="DUR_3xD6uI-W_Zdk0ia7-2" value="0" style="whiteSpace=wrap;html=1;aspect=fixed;rotation=-15;fontSize=17;fontFamily=Verdana;fontStyle=1;fontColor=#AFB9C7;fillColor=#383E47;strokeColor=#F0F0F0;rounded=1;shadow=0;glass=0;sketch=0;" vertex="1" parent="rad2TlyHusP4lz5AHPMq-1">
          <mxGeometry x="496" y="1551" width="40" height="40" as="geometry" />
        </mxCell>
      </root>
    </mxGraphModel>
  </diagram>
</mxfile>
